<?xml version="1.0" encoding="utf-8"?>
<svg xmlns="http://www.w3.org/2000/svg" viewBox="0 0 24 24" fill="#ffffff"><path d="M 13 2 L 11 4 L 9 4 L 9 6 L 7 8 L 9.0625 10.125 L 9 12 L 11 12 L 13 14 L 15 12 L 17 12 L 17 10 L 19 8 L 17 6 L 17 4 L 15 4 Z M 13 5.5 C 14.402344 5.5 15.5 6.597656 15.5 8 C 15.5 9.402344 14.402344 10.5 13 10.5 C 11.597656 10.5 10.5 9.402344 10.5 8 C 10.5 6.597656 11.597656 5.5 13 5.5 Z M 2 13 C 2.207031 14.207031 3.269531 20 7 20 C 8.035156 20 8.992188 19.691406 9.5625 19.25 C 9.636719 19.34375 9.710938 19.46875 9.78125 19.6875 C 9.960938 20.261719 10 21.199219 10 22 L 12 22 L 12 21 C 12 20.070313 12.773438 19.34375 13.75 18.84375 C 14.171875 19.445313 15.058594 20 16 20 C 18.898438 20 21 14.917969 21 14 L 16 14 C 14.234375 14 13 14.714844 13 16.5625 C 13.933594 15.984375 15.4375 15.933594 16.5 16.03125 C 15.921875 16.082031 15.195313 16.226563 14.40625 16.46875 C 14.339844 16.488281 14.28125 16.511719 14.21875 16.53125 C 14.125 16.5625 14.03125 16.589844 13.9375 16.625 C 13.59375 16.738281 13.277344 16.863281 13 17 C 12.359375 17.308594 11.75 17.675781 11.25 18.15625 C 10.019531 15.699219 7.558594 15.394531 6 15 C 7.609375 15.035156 9.957031 15.667969 11 17 C 11 14.625 9.269531 13 7 13 Z" fill="#ffffff"/></svg>
