<?xml version="1.0" encoding="UTF-8"?>
<svg width="30px" height="30px" viewBox="0 0 30 30" version="1.1" xmlns="http://www.w3.org/2000/svg" xmlns:xlink="http://www.w3.org/1999/xlink">
    <title>icons8-sun grey</title>
    <g id="Page-1" stroke="none" stroke-width="1" fill="none" fill-rule="evenodd">
        <g id="My-Plants-List" transform="translate(-1201.000000, -1426.000000)" fill="#C9C9C9" fill-rule="nonzero">
            <g id="icons8-sun-grey" transform="translate(1201.000000, 1426.000000)">
                <path d="M15,0 C14.25,0 13.75,0.5 13.75,1.25 L13.75,2.5 C13.75,3.25 14.25,3.75 15,3.75 C15.75,3.75 16.25,3.25 16.25,2.5 L16.25,1.25 C16.25,0.5 15.75,0 15,0 Z M5.2490235,3.9990235 C4.9365235,3.9990235 4.625,4.125 4.375,4.375 C3.875,4.875 3.875,5.62548825 4.375,6.12548825 L5.2490235,6.99951175 C5.74902338,7.49951175 6.49951175,7.49951175 6.99951175,6.99951175 C7.49951175,6.49951175 7.49951175,5.7490235 6.99951175,5.2490235 L6.12548825,4.375 C5.87548825,4.125 5.5615235,3.9990235 5.2490235,3.9990235 Z M24.7509763,3.9990235 C24.4384763,3.9990235 24.1245113,4.125 23.8745113,4.375 L23.0004888,5.2490235 C22.5004888,5.74902337 22.5004888,6.49951175 23.0004888,6.99951175 C23.5004888,7.49951175 24.2509763,7.49951175 24.7509763,6.99951175 L25.625,6.12548825 C26.125,5.62548825 26.125,4.875 25.625,4.375 C25.375,4.125 25.0634763,3.9990235 24.7509763,3.9990235 Z M15,6.25 C10.1675084,6.25 6.25,10.1675084 6.25,15 C6.25,19.8324916 10.1675084,23.75 15,23.75 C19.8324916,23.75 23.75,19.8324916 23.75,15 C23.75,10.1675084 19.8324916,6.25 15,6.25 Z M1.25,13.75 C0.5,13.75 0,14.25 0,15 C0,15.75 0.5,16.25 1.25,16.25 L2.5,16.25 C3.25,16.25 3.75,15.75 3.75,15 C3.75,14.25 3.25,13.75 2.5,13.75 L1.25,13.75 Z M27.5,13.75 C26.75,13.75 26.25,14.25 26.25,15 C26.25,15.75 26.75,16.25 27.5,16.25 L28.75,16.25 C29.5,16.25 30,15.75 30,15 C30,14.25 29.5,13.75 28.75,13.75 L27.5,13.75 Z M6.12548825,22.6245112 C5.81298825,22.6245112 5.4990235,22.7504887 5.2490235,23.0004887 L4.375,23.8745112 C3.875,24.3745112 3.875,25.125 4.375,25.625 C4.875,26.125 5.62548825,26.125 6.12548825,25.625 L6.99951175,24.7509763 C7.49951175,24.2509762 7.49951175,23.5004887 6.99951175,23.0004887 C6.74951175,22.7504887 6.43798825,22.6245112 6.12548825,22.6245112 Z M23.8745113,22.6245112 C23.5620113,22.6245112 23.2504888,22.7504887 23.0004888,23.0004887 C22.5004888,23.5004887 22.5004888,24.2509762 23.0004888,24.7509763 L23.8745113,25.625 C24.3745113,26.125 25.125,26.125 25.625,25.625 C26.125,25.125 26.125,24.3745112 25.625,23.8745112 L24.7509763,23.0004887 C24.5009763,22.7504887 24.1870113,22.6245112 23.8745113,22.6245112 Z M15,26.25 C14.25,26.25 13.75,26.75 13.75,27.5 L13.75,28.75 C13.75,29.5 14.25,30 15,30 C15.75,30 16.25,29.5 16.25,28.75 L16.25,27.5 C16.25,26.75 15.75,26.25 15,26.25 Z" id="Shape"></path>
            </g>
        </g>
    </g>
</svg>