<?xml version="1.0" encoding="UTF-8"?>
<svg width="46px" height="41px" viewBox="0 0 46 41" version="1.1" xmlns="http://www.w3.org/2000/svg" xmlns:xlink="http://www.w3.org/1999/xlink">
    <title>icons8-heart</title>
    <g id="Page-1" stroke="none" stroke-width="1" fill="none" fill-rule="evenodd">
        <g id="Homepage" transform="translate(-187.000000, -1179.000000)" fill="#003E31" fill-rule="nonzero">
            <g id="icons8-heart" transform="translate(187.000000, 1179.000000)">
                <path d="M13,0 C5.832031,0 0,5.78682146 0,12.8992248 C0,27.5465119 16.695313,34.7751938 22.375,39.4728682 L23,40 L23.625,39.4728682 C29.304688,34.7751938 46,27.5465119 46,12.8992248 C46,5.78682146 40.167969,0 33,0 C28.945313,0 25.382813,1.91085247 23,4.80620155 C20.617188,1.91085247 17.054688,0 13,0 Z M13,1.98449612 C16.835938,1.98449612 20.1875,3.9379845 22.15625,6.88372093 L23,8.12403101 L23.84375,6.88372093 C25.8125,3.9379845 29.164063,1.98449612 33,1.98449612 C39.085938,1.98449612 44,6.86046561 44,12.8992248 C44,25.6976749 29.59375,32.3217057 23,37.4883721 C16.40625,32.3217057 2,25.6976749 2,12.8992248 C2,6.86046561 6.914063,1.98449612 13,1.98449612 Z" id="Shape"></path>
            </g>
        </g>
    </g>
</svg>