<?xml version="1.0" encoding="UTF-8"?>
<svg width="22px" height="30px" viewBox="0 0 22 30" version="1.1" xmlns="http://www.w3.org/2000/svg" xmlns:xlink="http://www.w3.org/1999/xlink">
    <title>icons8-water  grey</title>
    <g id="Page-1" stroke="none" stroke-width="1" fill="none" fill-rule="evenodd">
        <g id="My-Plants-List" transform="translate(-1286.000000, -1363.000000)" fill="#C9C9C9" fill-rule="nonzero">
            <g id="icons8-water--grey" transform="translate(1286.000000, 1363.000000)">
                <g id="icons8-water">
                    <path d="M11.0296872,0.3210936 C10.8023436,0.04453128 10.3335936,0.04453128 10.1039064,0.3210936 C9.6914064,0.8226564 3.12638804e-13,12.646875 3.12638804e-13,19.4296878 C3.12638804e-13,25.2585936 4.7390622,30 10.5679686,30 C16.396875,30 21.1359372,25.2585936 21.1359372,19.4320314 C21.1359372,12.646875 11.4445314,0.8226564 11.0296872,0.3210936 Z M10.6875,7.6453128 C10.63125,7.7179686 5.0132814,15.0210936 5.0132814,19.3148436 C5.0132814,24.7289064 9.7570314,25.471875 9.9585936,25.5 C10.2867186,25.546875 10.5140622,25.8515628 10.4671872,26.1796878 C10.425,26.4796878 10.1695314,26.6953128 9.8742186,26.6953128 C9.8460936,26.6953128 9.8179686,26.6929686 9.7875,26.6882814 C9.7289064,26.6789064 3.8132814,25.7554686 3.8132814,19.3148436 C3.8132814,14.6132814 9.496875,7.2234378 9.7382814,6.909375 C9.9421872,6.646875 10.3195314,6.6 10.5796872,6.8039064 C10.8421872,7.0078128 10.8914064,7.3828128 10.6875,7.6453128 Z" id="Shape"></path>
                </g>
            </g>
        </g>
    </g>
</svg>