<?xml version="1.0" encoding="UTF-8"?>
<svg width="26px" height="25px" viewBox="0 0 26 25" version="1.1" xmlns="http://www.w3.org/2000/svg" xmlns:xlink="http://www.w3.org/1999/xlink">
    <title>icons8-pencil_drawing</title>
    <g id="Page-1" stroke="none" stroke-width="1" fill="none" fill-rule="evenodd">
        <g id="My-Plants-List" transform="translate(-1286.000000, -1167.000000)" fill="#0F7065" fill-rule="nonzero">
            <g id="icons8-pencil_drawing" transform="translate(1286.000000, 1167.000000)">
                <path d="M18.3084239,-9.97375684e-05 C18.1852924,0.0169836957 18.0706522,0.0785494565 17.9857337,0.169836957 L3.85529891,14.283288 C3.802225,14.342731 3.75976576,14.4106658 3.73641304,14.4870924 L0.0339673913,24.2697011 C-0.0382130435,24.4671364 0.0106146739,24.6900478 0.161345109,24.8386549 C0.309952717,24.9893853 0.532863587,25.0382136 0.730298913,24.9660326 L10.5129076,21.263587 C10.5893342,21.2402342 10.657269,21.197775 10.716712,21.1447011 L11.4130435,20.4483696 C11.542544,20.3931728 11.6465696,20.2891473 11.7017663,20.1596467 L24.830163,7.0142663 C24.9915082,6.88264293 25.065812,6.67246957 25.0191065,6.46866522 C24.9724016,6.2669837 24.8131793,6.10776141 24.6114978,6.06105652 C24.4076935,6.01435109 24.1975207,6.08865489 24.0658967,6.25 L11.0563859,19.2425272 C10.6657609,19.0620755 10.0692087,18.860394 9.30706522,18.8858696 C9.39622989,18.6438522 9.52997609,18.4994908 9.57880435,18.2065217 C9.69769022,17.4995755 9.63400163,16.6312842 9.0013587,15.9986413 C8.36659293,15.3638755 7.49193261,15.3044326 6.77649457,15.4381793 C6.52386196,15.4848848 6.40073043,15.6143853 6.18206522,15.6929348 C6.19055707,15.6165082 6.21390978,15.6037707 6.21603261,15.5230978 C6.22877065,15.0518005 6.11837663,14.4679859 5.75747283,13.9436141 L18.75,0.934103261 C18.9113451,0.779127174 18.9601734,0.539232609 18.8731321,0.333304891 C18.7882136,0.127377717 18.5822859,-0.00424565217 18.359375,-9.97375684e-05 C18.3423913,-9.97375684e-05 18.3254076,-9.97375684e-05 18.3084239,-9.97375684e-05 Z M4.94225543,14.7588315 C5.078125,15.0072179 5.13544511,15.2492359 5.12907609,15.4891304 C5.12058424,15.8585261 5.00169837,16.1769701 4.92527174,16.3892663 C4.84247609,16.6185462 4.92102609,16.8733016 5.11846141,17.0155402 C5.31589674,17.1577788 5.58339022,17.1514098 5.77445652,17.0006793 C5.92943261,16.8796707 6.44743533,16.6036853 6.96331522,16.5081522 C7.47919511,16.412619 7.93775489,16.4635701 8.23709239,16.7629076 C8.53855326,17.0643685 8.59587283,17.5250511 8.50883152,18.0366848 C8.42179022,18.5483185 8.15429674,19.0663212 8.05027174,19.2085598 C7.8995413,19.3996266 7.89317283,19.6671196 8.03541087,19.8645549 C8.17764946,20.0619908 8.43240489,20.1405402 8.66168478,20.0577446 C9.35164728,19.8475712 9.88875707,19.921875 10.2581522,20.0407609 L10.0033967,20.2955163 L4.00815217,22.5713315 L2.44565217,20.9918478 L4.7044837,14.9966033 L4.94225543,14.7588315 Z" id="Shape"></path>
            </g>
        </g>
    </g>
</svg>