<?xml version="1.0" encoding="UTF-8"?>
<svg width="21px" height="25px" viewBox="0 0 21 25" version="1.1" xmlns="http://www.w3.org/2000/svg" xmlns:xlink="http://www.w3.org/1999/xlink">
    <title>icons8-trash_can</title>
    <g id="Page-1" stroke="none" stroke-width="1" fill="none" fill-rule="evenodd">
        <g id="My-Plants-List" transform="translate(-1337.000000, -1167.000000)" fill="#0F7065" fill-rule="nonzero">
            <g id="icons8-trash_can" transform="translate(1337.000000, 1167.000000)">
                <path d="M8.15217391,0 C7.25790489,0 6.52173913,0.736166033 6.52173913,1.63043478 L6.52173913,2.7173913 L2.25777011,2.7173913 C2.22725472,2.7122907 2.19635954,2.70980488 2.1654212,2.70996092 C2.13909258,2.71053154 2.11284024,2.71301487 2.08687163,2.7173913 L1.08695652,2.7173913 C0.890958741,2.71461941 0.708651432,2.81759527 0.60984363,2.98688742 C0.511035827,3.15617957 0.511035827,3.36555956 0.60984363,3.53485171 C0.708651432,3.70414386 0.890958741,3.80711972 1.08695652,3.80434783 L1.63043478,3.80434783 L1.63043478,23.3695652 C1.63043478,24.2638342 2.36660054,25 3.26086957,25 L17.3913043,25 C18.2855734,25 19.0217391,24.2638342 19.0217391,23.3695652 L19.0217391,3.80434783 L19.5652174,3.80434783 C19.7612152,3.80711972 19.9435225,3.70414386 20.0423303,3.53485171 C20.1411381,3.36555956 20.1411381,3.15617957 20.0423303,2.98688742 C19.9435225,2.81759527 19.7612152,2.71461941 19.5652174,2.7173913 L18.5695484,2.7173913 C18.5108574,2.70769073 18.450972,2.70769073 18.392281,2.7173913 L14.1304348,2.7173913 L14.1304348,1.63043478 C14.1304348,0.736166033 13.394269,0 12.5,0 L8.15217391,0 Z M8.15217391,1.08695652 L12.5,1.08695652 C12.8013832,1.08695652 13.0434783,1.32905136 13.0434783,1.63043478 L13.0434783,2.7173913 L7.60869565,2.7173913 L7.60869565,1.63043478 C7.60869565,1.32905136 7.85079076,1.08695652 8.15217391,1.08695652 Z M2.7173913,3.80434783 L6.97392989,3.80434783 C7.03262089,3.8140484 7.09250628,3.8140484 7.15119728,3.80434783 L13.495669,3.80434783 C13.55436,3.8140484 13.6142454,3.8140484 13.6729364,3.80434783 L17.9347826,3.80434783 L17.9347826,23.3695652 C17.9347826,23.6709484 17.6926875,23.9130435 17.3913043,23.9130435 L3.26086957,23.9130435 C2.95948641,23.9130435 2.7173913,23.6709484 2.7173913,23.3695652 L2.7173913,3.80434783 Z M7.05672554,6.51424232 C6.75698848,6.51899406 6.51763439,6.76547181 6.52173913,7.06521739 L6.52173913,20.6521739 C6.51896723,20.8481717 6.6219431,21.030479 6.79123524,21.1292868 C6.96052739,21.2280946 7.16990739,21.2280946 7.33919954,21.1292868 C7.50849169,21.030479 7.61146755,20.8481717 7.60869565,20.6521739 L7.60869565,7.06521739 C7.61070732,6.91831504 7.55316485,6.77685508 7.44917953,6.67306972 C7.34519421,6.56928435 7.20362375,6.51201428 7.05672554,6.51424232 Z M10.3175951,6.51424232 C10.017858,6.51899406 9.77850396,6.76547181 9.7826087,7.06521739 L9.7826087,20.6521739 C9.7798368,20.8481717 9.88281266,21.030479 10.0521048,21.1292868 C10.221397,21.2280946 10.430777,21.2280946 10.6000691,21.1292868 C10.7693613,21.030479 10.8723371,20.8481717 10.8695652,20.6521739 L10.8695652,7.06521739 C10.8715769,6.91831504 10.8140344,6.77685508 10.7100491,6.67306972 C10.6060638,6.56928435 10.4644933,6.51201428 10.3175951,6.51424232 Z M13.5784647,6.51424232 C13.2787276,6.51899406 13.0393735,6.76547181 13.0434783,7.06521739 L13.0434783,20.6521739 C13.0407064,20.8481717 13.1436822,21.030479 13.3129744,21.1292868 C13.4822665,21.2280946 13.6916465,21.2280946 13.8609387,21.1292868 C14.0302308,21.030479 14.1332067,20.8481717 14.1304348,20.6521739 L14.1304348,7.06521739 C14.1324464,6.91831504 14.074904,6.77685508 13.9709187,6.67306972 C13.8669333,6.56928435 13.7253629,6.51201428 13.5784647,6.51424232 Z" id="Shape"></path>
            </g>
        </g>
    </g>
</svg>