<?xml version="1.0" encoding="UTF-8"?>
<svg width="46px" height="47px" viewBox="0 0 46 47" version="1.1" xmlns="http://www.w3.org/2000/svg" xmlns:xlink="http://www.w3.org/1999/xlink">
    <title>icons8-stethoscope</title>
    <g id="Page-1" stroke="none" stroke-width="1" fill="none" fill-rule="evenodd">
        <g id="Homepage" transform="translate(-187.000000, -1352.000000)" fill="#003E31" fill-rule="nonzero">
            <g id="icons8-stethoscope" transform="translate(187.000000, 1352.000000)">
                <path d="M5.75,0 C4.99007137,0 4.32373071,0.434630102 4.01302083,1.07908163 C3.61621142,1.16525853 3.08463542,1.30014373 2.54557292,1.49872449 C2.00651042,1.69730524 1.45247396,1.95958251 0.958333333,2.36798469 C0.464192708,2.77638688 0,3.40585116 0,4.19642857 C0,4.5411352 0.0561525833,4.93829767 0.149739583,5.5752551 C0.243326583,6.21221349 0.378092208,7.05524578 0.569010417,8.00318878 C0.947102625,9.89907573 1.531087,12.3120222 2.30598958,14.807398 C3.83333333,19.7307084 6.015788,25.0099652 9.61328125,27.1868622 C9.609538,27.265545 9.58333333,27.3442288 9.58333333,27.4266582 C9.58333333,28.5731829 9.92399112,29.9407687 10.5117188,31.1434949 C10.8037114,31.7429847 11.1630864,32.2787789 11.6197917,32.7321429 C11.8631182,32.9756853 12.1625974,33.2079881 12.4882812,33.3616071 C12.5219724,35.8569839 12.7615557,39.0192926 14.5247396,41.7544643 C16.4601235,44.7594074 20.2373052,47 26.8333333,47 C32.8378906,47 36.3530276,44.5158639 38.1835938,41.6945153 C39.688477,39.3752389 40.1152344,36.9585459 40.2200521,35.4298469 C43.4768885,34.976483 46,32.158881 46,28.7755102 C46,25.0811548 42.9827479,22.0612245 39.2916667,22.0612245 C35.5968422,22.0612245 32.5833333,25.0811548 32.5833333,28.7755102 C32.5833333,32.1251599 35.0615239,34.9052934 38.2734375,35.3998724 C38.1573891,36.7075093 37.7718104,38.7832432 36.5664062,40.6454082 C35.0428057,42.994659 32.328776,45.0816327 26.8333333,45.0816327 C20.6528318,45.0816327 17.717936,43.1482781 16.1419271,40.7053571 C14.7081703,38.4834983 14.4461265,35.6958708 14.4049479,33.3316327 C14.7044271,33.1780136 14.985189,32.9569515 15.2135417,32.7321429 C15.6665037,32.2787789 16.0296229,31.7429847 16.3216146,31.1434949 C16.9093422,29.9407687 17.25,28.5731829 17.25,27.4266582 C17.25,27.3442288 17.2237953,27.265545 17.2200521,27.1868622 C20.8175453,25.0099652 23,19.7307084 24.5273438,14.807398 C25.3022463,12.3120222 25.8862307,9.89907573 26.2643229,8.00318878 C26.4552411,7.05524578 26.5900067,6.21221349 26.6835938,5.5752551 C26.7771808,4.93829767 26.8333333,4.5411352 26.8333333,4.19642857 C26.8333333,3.40585116 26.3691406,2.77638688 25.875,2.36798469 C25.3808594,1.95958251 24.8268229,1.69730524 24.2877604,1.49872449 C23.7486979,1.30014373 23.2171229,1.16525853 22.8203125,1.07908163 C22.8015953,1.07533506 22.8090818,1.0828282 22.7903646,1.07908163 C22.4796547,0.442124204 21.8395187,0 21.0833333,0 C20.0239255,0 19.1666667,0.858019531 19.1666667,1.91836735 C19.1666667,2.97871516 20.0239255,3.83673469 21.0833333,3.83673469 C21.7309568,3.83673469 22.2924807,3.51825598 22.640625,3.02742347 C22.9363609,3.09486655 23.280762,3.16980278 23.6289062,3.29719388 C24.0481771,3.4508129 24.452474,3.64939461 24.6770833,3.83673469 C24.9016927,4.02407573 24.9166667,4.09901196 24.9166667,4.19642857 C24.9166667,4.23389716 24.8867188,4.7059949 24.796875,5.30548469 C24.7070312,5.90497449 24.5610349,6.69180533 24.3776042,7.61352041 C24.0107427,9.45320496 23.4492188,11.8249362 22.7005208,14.2378827 C21.2517901,18.9064099 18.953288,23.7098214 16.3815104,25.4183673 C16.1606443,25.2535077 15.9248052,25.122369 15.6927083,25.0586735 C14.8579099,24.8263717 14.1391599,24.96875 13.4166667,24.96875 C12.6941734,24.96875 11.9754234,24.8301182 11.140625,25.0586735 C10.9085291,25.122369 10.672689,25.2535077 10.4518229,25.4183673 C7.88004533,23.7098214 5.58154321,18.9064099 4.1328125,14.2378827 C3.38411458,11.8249362 2.82259162,9.45320496 2.45572917,7.61352041 C2.27229842,6.69180533 2.12630208,5.90497449 2.03645833,5.30548469 C1.94661458,4.7059949 1.91666667,4.23389716 1.91666667,4.19642857 C1.91666667,4.09901196 1.93164062,4.02407573 2.15625,3.83673469 C2.38085938,3.64939461 2.78515625,3.4508129 3.20442708,3.29719388 C3.55257137,3.16980278 3.89697242,3.09486655 4.19270833,3.02742347 C4.54085262,3.51825598 5.10237654,3.83673469 5.75,3.83673469 C6.80940779,3.83673469 7.66666667,2.97871516 7.66666667,1.91836735 C7.66666667,0.858019531 6.80940779,0 5.75,0 Z M39.2916667,23.9795918 C41.9458005,23.9795918 44.0833333,26.1190213 44.0833333,28.7755102 C44.0833333,31.4020246 41.9944666,33.5227203 39.3815104,33.5714286 C39.3515625,33.5714286 39.3216146,33.5714286 39.2916667,33.5714286 C36.6337895,33.5714286 34.5,31.4319991 34.5,28.7755102 C34.5,26.1190213 36.6337895,23.9795918 39.2916667,23.9795918 Z M39.2916667,25.8979592 C37.7156578,25.8979592 36.4166667,27.1981029 36.4166667,28.7755102 C36.4166667,30.3529175 37.7156578,31.6530612 39.2916667,31.6530612 C40.8676755,31.6530612 42.1666667,30.3529175 42.1666667,28.7755102 C42.1666667,27.1981029 40.8676755,25.8979592 39.2916667,25.8979592 Z M12.2786458,26.8871173 C12.5856125,26.8871173 12.9861651,26.8871173 13.4166667,26.8871173 C14.281413,26.8871173 14.9777016,26.8608894 15.1835938,26.9170918 C15.2884115,26.9470663 15.265951,26.9058512 15.2734375,26.9170918 C15.280925,26.9283325 15.3333333,27.0744584 15.3333333,27.4266582 C15.3333333,28.1273121 15.0375974,29.375 14.5846354,30.3042092 C14.3562828,30.7688138 14.0979822,31.150989 13.8658854,31.3832908 C13.6824547,31.5668843 13.5551755,31.6043529 13.4765625,31.6230867 C13.4353839,31.6193402 13.3979495,31.6193402 13.3567708,31.6230867 C13.2781578,31.6043529 13.1508787,31.5668843 12.9674479,31.3832908 C12.735352,31.150989 12.4770505,30.7688138 12.2486979,30.3042092 C11.7957359,29.375 11.5,28.1273121 11.5,27.4266582 C11.5,27.0744584 11.5524093,26.9283325 11.5598958,26.9170918 C11.5673833,26.9058512 11.5449219,26.9470663 11.6497396,26.9170918 C11.7545573,26.8871173 11.9716802,26.8871173 12.2786458,26.8871173 Z M39.2916667,27.8163265 C39.8344724,27.8163265 40.25,28.2322228 40.25,28.7755102 C40.25,29.3187976 39.8344724,29.7346939 39.2916667,29.7346939 C38.7488609,29.7346939 38.3333333,29.3187976 38.3333333,28.7755102 C38.3333333,28.2322228 38.7488609,27.8163265 39.2916667,27.8163265 Z" id="Shape"></path>
            </g>
        </g>
    </g>
</svg>