<?xml version="1.0" encoding="UTF-8"?>
<svg width="33px" height="46px" viewBox="0 0 33 46" version="1.1" xmlns="http://www.w3.org/2000/svg" xmlns:xlink="http://www.w3.org/1999/xlink">
    <title>icons8-water</title>
    <g id="Page-1" stroke="none" stroke-width="1" fill="none" fill-rule="evenodd">
        <g id="Homepage" transform="translate(-187.000000, -1259.000000)" fill="#003E31" fill-rule="nonzero">
            <g id="icons8-water" transform="translate(187.000000, 1259.000000)">
                <path d="M16.8730053,0.00396552431 C16.8338964,0.0111753955 16.7947884,0.0219888181 16.7592346,0.0328031635 C16.5565808,0.0760596222 16.3788137,0.187805705 16.2472665,0.350017194 C16.2472665,0.350017194 12.4359486,5.0469479 8.62463061,11.0199437 C4.81331265,16.9929395 0.916666667,24.1626982 0.916666667,29.7355715 C0.916666667,38.7040773 8.11266253,46 16.9583333,46 C25.8040041,46 33,38.7040773 33,29.7355715 C33,24.1626982 29.103354,16.9929395 25.2920361,11.0199437 C21.4807181,5.0469479 17.6694001,0.350017194 17.6694001,0.350017194 C17.4774125,0.104897261 17.1787645,-0.0248721149 16.8730053,0.00396552431 Z M16.9583333,2.45516485 C17.8507224,3.57622831 20.5776637,7.01872171 23.7561318,12.0004234 C27.5034542,17.8724875 31.179669,25.0855027 31.179669,29.7355715 C31.179669,37.7055743 24.8191769,44.1543911 16.9583333,44.1543911 C9.0974898,44.1543911 2.73699764,37.7055743 2.73699764,29.7355715 C2.73699764,25.0855027 6.41321337,17.8724875 10.1605349,12.0004234 C13.3390039,7.01872171 16.0659443,3.57622831 16.9583333,2.45516485 Z M16.2757092,10.1259769 C16.0446127,10.1728378 15.8419589,10.3062126 15.7068558,10.5008662 C15.7068558,10.5008662 13.4741061,13.4134677 11.2413564,17.2200361 C9.00860668,21.0266045 6.71897163,25.6694644 6.71897163,29.5625457 C6.71897163,34.4505255 8.98727513,37.409988 11.2413564,38.9924537 C13.4954385,40.5749194 15.7637411,40.8957379 15.7637411,40.8957379 C16.097943,40.9786463 16.4463652,40.8632958 16.6703515,40.6001525 C16.8943378,40.3370084 16.9512231,39.9657245 16.8196751,39.644905 C16.688128,39.3240865 16.3894799,39.1041998 16.0481678,39.0789666 C16.0481678,39.0789666 14.1780627,38.8158234 12.2937352,37.4928964 C10.4094087,36.1699695 8.5393026,33.891796 8.5393026,29.5625457 C8.5393026,26.4516851 10.6369501,21.8412682 12.8057033,18.1428406 C14.9744575,14.4444138 17.1289894,11.6255341 17.1289894,11.6255341 C17.3707521,11.3299488 17.4063059,10.9081976 17.2178725,10.5729603 C17.0258849,10.2413274 16.6525751,10.0610926 16.2757092,10.1259769 Z" id="Shape"></path>
            </g>
        </g>
    </g>
</svg>