<?xml version="1.0" encoding="UTF-8"?>
<svg width="20px" height="20px" viewBox="0 0 20 20" version="1.1" xmlns="http://www.w3.org/2000/svg" xmlns:xlink="http://www.w3.org/1999/xlink">
    <title>icons8-linkedin</title>
    <g id="Page-1" stroke="none" stroke-width="1" fill="none" fill-rule="evenodd">
        <g id="Homepage" transform="translate(-1375.000000, -1600.000000)" fill="#FFFFFF" fill-rule="nonzero">
            <g id="icons8-linkedin" transform="translate(1375.000000, 1600.000000)">
                <path d="M17.6190476,0 L2.38095238,0 C1.06666667,0 0,1.06666667 0,2.38095238 L0,17.6190476 C0,18.9333333 1.06666667,20 2.38095238,20 L17.6190476,20 C18.9333333,20 20,18.9333333 20,17.6190476 L20,2.38095238 C20,1.06666667 18.9333333,0 17.6190476,0 Z M6.19047619,7.61904762 L6.19047619,16.6666667 L3.33333333,16.6666667 L3.33333333,7.61904762 L6.19047619,7.61904762 Z M3.33333333,4.98571429 C3.33333333,4.31904762 3.9047619,3.80952381 4.76190476,3.80952381 C5.61904762,3.80952381 6.15714286,4.31904762 6.19047619,4.98571429 C6.19047619,5.65238095 5.65714286,6.19047619 4.76190476,6.19047619 C3.9047619,6.19047619 3.33333333,5.65238095 3.33333333,4.98571429 Z M16.6666667,16.6666667 L13.8095238,16.6666667 C13.8095238,16.6666667 13.8095238,12.2571429 13.8095238,11.9047619 C13.8095238,10.952381 13.3333333,10 12.1428571,9.98095238 L12.1047619,9.98095238 C10.952381,9.98095238 10.4761905,10.9619048 10.4761905,11.9047619 C10.4761905,12.3380952 10.4761905,16.6666667 10.4761905,16.6666667 L7.61904762,16.6666667 L7.61904762,7.61904762 L10.4761905,7.61904762 L10.4761905,8.83809524 C10.4761905,8.83809524 11.3952381,7.61904762 13.2428571,7.61904762 C15.1333333,7.61904762 16.6666667,8.91904762 16.6666667,11.552381 L16.6666667,16.6666667 Z" id="Shape"></path>
            </g>
        </g>
    </g>
</svg>