<?xml version="1.0" encoding="UTF-8"?>
<svg width="45px" height="46px" viewBox="0 0 45 46" version="1.1" xmlns="http://www.w3.org/2000/svg" xmlns:xlink="http://www.w3.org/1999/xlink">
    <title>icons8-potted_plant outline</title>
    <g id="Page-1" stroke="none" stroke-width="1" fill="none" fill-rule="evenodd">
        <g id="Homepage" transform="translate(-187.000000, -1086.000000)" fill="#003E31" fill-rule="nonzero">
            <g id="icons8-potted_plant-outline" transform="translate(187.000000, 1086.000000)">
                <path d="M12.0111428,0 C6.42482235,0 1.69793491,1.65625 1.69793491,1.65625 C1.233059,1.804688 0.940070894,2.265625 1.01038772,2.75 C1.01038772,2.75 1.59636594,6.484375 3.47930718,10.25 C4.4207778,12.132813 5.69820948,14.027344 7.4483296,15.5 C9.19844972,16.972656 11.4525104,18 14.1675408,18 C16.413789,18 17.9177982,17.59375 17.9177982,17.59375 C18.4529909,17.445313 18.7694196,16.894531 18.6209714,16.359375 C18.4725243,15.824219 17.9217045,15.507813 17.3865117,15.65625 C17.3865117,15.65625 16.1754916,16 14.1675408,16 C11.9369187,16 10.1867986,15.226563 8.72966754,14 C7.27253653,12.773438 6.12011343,11.0625 5.26067944,9.34375 C3.88949133,6.605469 3.39727055,4.320313 3.19803787,3.3125 C4.26842434,2.976563 7.60068405,2 12.0111428,2 C16.3825368,2 18.8788021,3.859375 20.1367005,6.28125 C21.1953671,8.320313 21.2852173,10.828125 20.5742305,12.96875 C19.3710229,11.59375 18.0037421,10.371094 16.6364602,9.3125 C13.034651,6.523438 9.44846688,4.84375 9.44846688,4.84375 C9.26486028,4.753906 9.05781507,4.71875 8.85467612,4.75 C8.40933356,4.804688 8.05384016,5.152344 7.99133587,5.597656 C7.92492531,6.039063 8.16322266,6.472656 8.57340682,6.65625 C8.57340682,6.65625 11.9877042,8.242188 15.3863744,10.875 C18.7850457,13.507813 22.0118292,17.128906 22.0118292,20.875 L22.0118292,23 C22.0079229,23.042969 22.0079229,23.082031 22.0118292,23.125 C22.0118292,23.1875 22.0118292,23.25 22.0118292,23.3125 L22.0118292,24 L9.01093685,24 C8.9796847,24 8.94843256,24 8.91718041,24 C8.40152002,24.046875 8.00696194,24.480469 8.01086821,25 L8.01086821,31 C8.01086821,31.550781 8.46011804,32 9.01093685,32 L10.1985184,32 L13.0424636,45.21875 C13.1440335,45.671875 13.5464041,45.996094 14.0112801,46 L32.0125156,46 C32.4773915,45.996094 32.8797631,45.671875 32.9813321,45.21875 L35.8252773,32 L37.0128588,32 C37.5636776,32 38.0129274,31.550781 38.0129274,31 L38.0129274,25 C38.0129274,24.449219 37.5636776,24 37.0128588,24 L24.0119665,24 L24.0119665,23.3125 C24.0119665,23.257813 24.0119665,23.207031 24.0119665,23.15625 C24.0158727,23.105469 24.0158727,23.050781 24.0119665,23 C24.0940031,21.433594 24.8128024,20.050781 25.9183473,18.78125 C27.0981163,17.425781 28.7310404,16.257813 30.3874041,15.3125 C33.7001314,13.421875 37.0441109,12.46875 37.0441109,12.46875 C37.5871172,12.363281 37.9465169,11.839844 37.8410406,11.296875 C37.7355644,10.753906 37.2120915,10.394531 36.6690852,10.5 C36.6065809,10.503906 36.5440766,10.515625 36.4815723,10.53125 C36.4815723,10.53125 32.9500799,11.527344 29.3873354,13.5625 C28.6880684,13.960938 28.0005212,14.421875 27.3246938,14.90625 C27.4301701,14.121094 27.6254955,13.160156 28.0434932,12.1875 C28.9693377,10.042969 30.6882057,8 35.0127215,8 C39.3372373,8 41.9155393,8.898438 42.8257578,9.25 C42.6148063,10.132813 42.1499304,11.800781 40.9818812,13.8125 C39.4309938,16.492188 36.9816067,19 32.8563235,19 C30.4420958,19 28.8560489,18.25 28.8560489,18.25 C28.5318077,18.085938 28.1411559,18.113281 27.8403542,18.320313 C27.5395526,18.523438 27.3754783,18.878906 27.4106377,19.242188 C27.4457962,19.605469 27.676281,19.917969 28.012241,20.0625 C28.012241,20.0625 30.0201918,21 32.8563235,21 C37.8215083,21 40.9506291,17.835938 42.7007492,14.8125 C44.4508693,11.789063 44.9821558,8.78125 44.9821558,8.78125 C45.0680997,8.332031 44.8376149,7.878906 44.4196172,7.6875 C44.4196172,7.6875 40.5990429,6 35.0127215,6 C30.0045658,6 27.3403199,8.761719 26.1996166,11.40625 C25.0589133,14.050781 25.199548,16.625 25.199548,16.625 C25.199548,16.636719 25.199548,16.644531 25.199548,16.65625 C24.9339047,16.917969 24.6643552,17.1875 24.4182444,17.46875 C24.1526011,17.773438 23.902584,18.105469 23.6681929,18.4375 C23.3283255,17.15625 22.7579744,15.9375 22.0118292,14.8125 C23.4025496,11.914063 23.4611477,8.320313 21.9180727,5.34375 C20.3359332,2.292969 16.9763276,0 12.0111428,0 Z M10.0110055,26 L36.0127902,26 L36.0127902,30 L10.0110055,30 L10.0110055,26 Z M12.2299078,32 L33.7938879,32 L31.1999598,44 L14.8238358,44 L12.2299078,32 Z" id="Shape"></path>
            </g>
        </g>
    </g>
</svg>