<?xml version="1.0" encoding="UTF-8"?>
<svg width="460px" height="474px" viewBox="0 0 460 474" version="1.1" xmlns="http://www.w3.org/2000/svg" xmlns:xlink="http://www.w3.org/1999/xlink">
    <title>3814785</title>
    <g id="Page-1" stroke="none" stroke-width="1" fill="none" fill-rule="evenodd">
        <g id="My-Plants-List---Empty-State" transform="translate(-877.000000, -224.000000)">
            <g id="3814785" transform="translate(877.000000, 224.000000)">
                <path d="M58.515,61.225 C58.659,61.125 58.804,61.026 58.95,60.925 C105.851,28.708 167.732,38.558 222.315,46.572 C289.369,56.417 393.378,57.28 438.464,108.092 C462.584,135.277 458.828,170.859 452.416,202.349 C442.849,249.327 423.887,292.972 371.843,317.284 C314.082,344.268 245.709,341.331 181.86,340.9 C145.075,340.652 106.268,337.875 74.949,320.031 C46.235,303.673 34.436,278.65 25.939,251.532 C7.144,191.547 -6.186,106.091 58.515,61.225" id="Fill-4" fill="#E2F2EF"></path>
                <path d="M54.724,426.278 C51.596,426.544 31.359,423.796 32.204,432.939 C33.008,441.642 54.724,441.503 74.706,444.357 C93.047,446.978 100.406,448.183 111.816,459.582 C129.985,477.734 201.942,471.669 215.874,472.962 C254.878,476.584 286.61,468.614 323.972,459.709 C364.501,450.049 422.019,450.066 451.853,442.394 C470.773,437.527 451.637,432.345 439.146,431.987 C405.842,431.036 388.9,433.983 368.732,434.842 C348.006,435.725 327.773,427.637 306.882,427.229 C283.804,426.78 274.507,422.964 251.76,425.368 C231.275,427.534 210.519,429.077 189.919,427.814 C170.371,426.617 169.281,427.14 149.878,425.327 C138.669,424.279 70.055,424.979 54.724,426.278" id="Fill-5" fill="#F6ECE5"></path>
                <path d="M388.919,215.757 C390.503,222.732 391.672,230.341 392.459,238.225 C392.674,240.402 392.854,242.604 393.015,244.819 C393.993,244.892 394.972,244.959 395.952,245.012 C395.758,242.053 395.538,239.105 395.222,236.21 C394.758,231.948 394.194,227.758 393.512,223.701 C392.829,219.643 391.992,215.773 391.065,212.08 L390.347,209.353 C390.092,208.472 389.845,207.578 389.583,206.713 C389.058,204.986 388.512,203.3 387.888,201.811 C387.269,200.314 386.6,198.954 385.867,197.836 C385.138,196.721 384.353,195.771 383.492,195.356 C384.429,199.192 385.336,202.49 386.261,205.792 C387.186,209.055 388.14,212.238 388.919,215.757" id="Fill-6" fill="#59803B"></path>
                <path d="M394.668,244.931 C395.994,227.707 398.389,209.864 402.667,200.466 L402.182,199.956 C402.182,199.956 398.141,209.346 395.691,224.986 C395.103,228.752 394.563,236.286 394.11,244.893 C394.296,244.905 394.482,244.919 394.668,244.931" id="Fill-7" fill="#59803B"></path>
                <path d="M404.904,194.971 C404.904,194.971 401.417,199.499 402.663,204.294 C403.779,208.586 407.993,207.979 408.729,204.123 C409.079,202.292 409.253,198.463 406.156,194.97 L404.904,194.971" id="Fill-8" fill="#F8C465"></path>
                <path d="M407.013,192.605 C407.013,192.605 412.074,196.093 417.436,194.846 C422.233,193.73 421.555,189.516 417.244,188.78 C415.196,188.43 410.917,188.256 407.012,191.354 L407.013,192.605" id="Fill-9" fill="#F8C465"></path>
                <path d="M405.674,193.14 C405.674,193.14 406.975,199.427 411.818,202.562 C416.153,205.367 418.608,201.853 415.933,198.092 C414.662,196.306 411.615,192.969 406.551,192.247 L405.674,193.14" id="Fill-10" fill="#F8C465"></path>
                <path d="M406.973,191.355 C406.973,191.355 412.864,190.432 415.59,185.979 C418.028,181.996 414.573,179.484 411.145,181.842 C409.517,182.961 406.509,185.694 406.081,190.476 L406.973,191.355" id="Fill-11" fill="#F8C465"></path>
                <path d="M403.879,193.271 C403.879,193.271 397.692,194.487 394.653,199.25 C391.935,203.511 395.429,205.983 399.109,203.376 C400.856,202.139 404.114,199.159 404.771,194.151 L403.879,193.271" id="Fill-12" fill="#F8C465"></path>
                <path d="M405.909,190.097 C405.909,190.097 409.396,185.484 408.149,180.598 C407.033,176.225 402.819,176.843 402.083,180.772 C401.733,182.638 401.56,186.54 404.657,190.099 L405.909,190.097" id="Fill-13" fill="#F8C465"></path>
                <path d="M402.774,192.24 C402.774,192.24 397.713,188.752 392.352,190 C387.554,191.115 388.231,195.33 392.543,196.065 C394.59,196.415 398.87,196.589 402.775,193.492 L402.774,192.24" id="Fill-14" fill="#F8C465"></path>
                <path d="M404.542,191.229 C404.542,191.229 403.461,185.165 398.85,182.265 C394.724,179.671 392.239,183.155 394.728,186.727 C395.909,188.422 398.771,191.571 403.665,192.122 L404.542,191.229" id="Fill-15" fill="#F8C465"></path>
                <path d="M408.122002,192.423 C408.121,190.694 406.718,189.293 404.988,189.293999 C403.259,189.296 401.858,190.699 401.858999,192.428 C401.86,194.158 403.264,195.559 404.993,195.558001 C406.723,195.556 408.124,194.153 408.122002,192.423" id="Fill-16" fill="#FFFFFE"></path>
                <path d="M370.877,217.421 C368.706,220.602 370.03,223.315 370.03,223.315 C370.03,223.315 372.167,219.476 378.166,219.597 C384.164,219.718 386.383,221.031 386.383,221.031 C386.383,221.031 382.989,218.272 377.826,216.831 C372.662,215.39 370.877,217.421 370.877,217.421" id="Fill-17" fill="#A4B73A"></path>
                <path d="M391.929,229.173 C391.929,229.173 383.601,223.641 382.158,220.17 C380.717,216.7 373.861,216.685 370.877,217.421 C370.877,217.421 371.373,214.193 377.077,215.013 C382.782,215.832 380.181,212.32 386.195,213.686 C392.209,215.051 393.753,223.302 391.929,229.173" id="Fill-18" fill="#3E6633"></path>
                <path d="M393.021,239.111 C393.173,240.852 393.311,242.79 393.436,244.848 C393.58,244.858 393.725,244.867 393.869,244.877 C393.754,242.291 393.64,240.241 393.532,239.062 C391.544,217.184 385.38,215.626 380.708,214.956 L379.786,215.032 C384.299,215.681 390.961,215.651 393.021,239.111" id="Fill-19" fill="#7EBD42"></path>
                <path d="M394.67,243.247 C394.749,241.904 394.833,240.621 394.922,239.42 C396.981,211.644 403.644,211.679 408.156,210.912 L407.234,210.821 C402.562,211.615 396.398,213.459 394.409,239.362 C394.341,240.253 394.27,241.584 394.197,243.22 C394.354,243.229 394.513,243.238 394.67,243.247" id="Fill-20" fill="#7EBD42"></path>
                <path d="M401.079,217.056 C401.079,217.056 402.858,210.386 406.506,207.866 C410.154,205.346 416.476,216.972 416.476,216.972 C416.476,216.972 407.19,210.074 401.079,217.056" id="Fill-21" fill="#3E6633"></path>
                <path d="M395.857,229.442 C395.921,229.048 399.885,220.139 404.358,216.956 C408.831,213.773 416.476,216.972 416.476,216.972 C416.476,216.972 404.458,208.573 399.719,213.979 C394.979,219.385 395.857,229.442 395.857,229.442" id="Fill-22" fill="#7EBD42"></path>
                <polygon id="Fill-23" fill="#A76D51" points="356.547 396.169 434.464 396.169 434.464 391.133 356.547 391.133"></polygon>
                <polygon id="Fill-24" fill="#DB8D67" points="391.088 440.255 398.774 440.255 398.774 288.558 391.088 288.558"></polygon>
                <polygon id="Fill-25" fill="#DB8D67" points="354.527 288.558 441.002 288.558 441.002 280.871 354.527 280.871"></polygon>
                <polyline id="Fill-26" fill="#DB8D67" points="438.119 440.255 408.334 287.484 416.021 287.484 445.806 440.255 438.119 440.255"></polyline>
                <polyline id="Fill-27" fill="#DB8D67" points="353.566 440.255 383.353 287.484 375.666 287.484 345.88 440.255 353.566 440.255"></polyline>
                <polygon id="Fill-28" fill="#A76D51" points="391.088 298.672 398.774 298.672 398.774 288.558 391.088 288.558"></polygon>
                <polyline id="Fill-29" fill="#A76D51" points="418.201 298.672 416.021 287.484 408.334 287.484 410.515 298.672 418.201 298.672"></polyline>
                <polyline id="Fill-30" fill="#A76D51" points="381.171 298.672 383.353 287.484 375.666 287.484 373.484 298.672 381.171 298.672"></polyline>
                <path d="M402.058,280.692 L391.271,280.692 C387.597,280.692 384.379,278.225 383.427,274.676 L375.851,246.434 L417.479,246.434 L409.902,274.676 C408.95,278.225 405.733,280.692 402.058,280.692" id="Fill-31" fill="#75655C"></path>
                <polyline id="Fill-32" fill="#5C5048" points="415.324 254.466 417.479 246.434 375.851 246.434 378.005 254.466 415.324 254.466"></polyline>
                <path d="M419.657,248.474 L373.672,248.474 C372.855,248.474 372.194,247.812 372.194,246.996 L372.194,244.371 C372.194,242.132 374.01,240.317 376.249,240.317 L417.08,240.317 C419.319,240.317 421.135,242.132 421.135,244.371 L421.135,246.996 C421.135,247.812 420.474,248.474 419.657,248.474" id="Fill-33" fill="#75655C"></path>
                <path d="M102.761,374.621 C102.761,374.621 110.999,364.895 121.032,364.895 C136.271,364.895 140.14,381.719 136.796,388.729 C133.452,395.739 99.322,415.165 99.322,415.165 L98.95,421.124 C98.95,421.124 128.306,401.495 134.995,394.485 C141.684,387.476 143.17,374.507 130.907,364.692 C118.645,354.878 99.649,370.906 99.649,370.906 L102.761,374.621" id="Fill-34" fill="#E15D54"></path>
                <path d="M106.371,371.141 C106.189,369.633 106.022,368.123 105.869,366.611 C102.13,368.818 99.649,370.906 99.649,370.906 L102.761,374.621 C102.761,374.621 104.106,373.033 106.371,371.141" id="Fill-35" fill="#CF4641"></path>
                <path d="M111.193,408.099 C104.592,412.165 99.322,415.165 99.322,415.165 L98.95,421.124 C98.95,421.124 104.684,417.29 111.661,412.406 C111.507,410.97 111.35,409.534 111.193,408.099" id="Fill-36" fill="#CF4641"></path>
                <polyline id="Fill-37" fill="#E15D54" points="47.604 393.193 20.477 374.985 15.275 382.046 44.631 416.232 47.604 393.193"></polyline>
                <path d="M43.829,390.659 C41.97,396.62 39.954,402.532 37.946,408.446 L44.631,416.232 L47.604,393.193 L43.829,390.659" id="Fill-38" fill="#CF4641"></path>
                <polyline id="Fill-39" fill="#CF4641" points="20.477 374.985 16.194 362.421 2.09 378.739 15.275 382.046 20.477 374.985"></polyline>
                <polyline id="Fill-40" fill="#E98E86" points="16.194 362.421 14.228 360.622 0.179 377.163 2.09 378.739 16.194 362.421"></polyline>
                <path d="M110.092,427.68 C110.433,432.664 95.078,436.777 75.79,436.777 C56.503,436.777 41.148,432.664 41.489,427.68 C41.822,422.792 57.177,418.899 75.79,418.899 C94.404,418.899 109.759,422.792 110.092,427.68" id="Fill-41" fill="#E15D54"></path>
                <path d="M103.933,369.48 C104.095,372.821 91.496,375.559 75.79,375.559 C60.085,375.559 47.486,372.821 47.648,369.48 C47.809,366.177 60.407,363.526 75.79,363.526 C91.173,363.526 103.772,366.177 103.933,369.48" id="Fill-42" fill="#E15D54"></path>
                <polyline id="Fill-43" fill="#E15D54" points="47.648 369.48 41.489 427.68 110.092 427.68 103.933 369.48 47.648 369.48"></polyline>
                <path d="M99.813,368.547 C100.302,370.78 89.555,372.659 75.79,372.659 C62.026,372.659 51.279,370.78 51.769,368.547 C52.239,366.4 62.986,364.721 75.79,364.721 C88.595,364.721 99.342,366.4 99.813,368.547" id="Fill-44" fill="#2A1715"></path>
                <path d="M99.346,369.48 C97.139,371.281 87.55,372.659 75.79,372.659 C64.031,372.659 54.442,371.281 52.235,369.48 L47.648,369.48 L41.489,427.68 L110.092,427.68 L103.933,369.48 L99.346,369.48" id="Fill-45" fill="#E15D54"></path>
                <path d="M103.056,409.153 C93.793,414.158 84.303,415.788 75.861,415.789 C68.004,415.789 61.06,414.374 56.085,412.959 C53.597,412.251 51.602,411.544 50.231,411.015 C49.546,410.75 49.016,410.53 48.66,410.376 C48.481,410.3 48.346,410.24 48.256,410.199 C48.166,410.158 48.124,410.138 48.123,410.138 L47.698,411.043 C47.736,411.059 59.906,416.786 75.861,416.789 C84.429,416.789 94.095,415.132 103.531,410.033 L103.056,409.153" id="Fill-46" fill="#CF4641"></path>
                <path d="M48.69,402.834 C48.728,402.85 60.464,408.159 75.852,408.161 C84.118,408.162 93.443,406.625 102.552,401.894 L102.091,401.007 C93.154,405.649 83.996,407.161 75.852,407.161 C68.273,407.162 61.576,405.85 56.779,404.538 C54.38,403.882 52.456,403.226 51.135,402.736 C50.474,402.49 49.963,402.286 49.619,402.144 C49.447,402.073 49.317,402.017 49.23,401.979 L49.102,401.923 L48.69,402.835" id="Fill-47" fill="#CF4641"></path>
                <path d="M49.615,392.828 C49.652,392.842 60.983,397.777 75.844,397.78 C83.829,397.78 92.837,396.351 101.639,391.95 L101.191,391.056 C92.558,395.373 83.711,396.78 75.844,396.78 C68.525,396.78 62.058,395.56 57.425,394.341 C55.109,393.731 53.252,393.122 51.976,392.666 C51.338,392.438 50.845,392.248 50.513,392.116 C50.347,392.049 50.221,391.998 50.137,391.963 L50.014,391.911 L49.615,392.828" id="Fill-48" fill="#CF4641"></path>
                <path d="M333.916,388.787 L293.874,380.921 C287.372,389.537 257.899,399.287 239.791,404.423 C216.174,411.121 205.114,416.761 202.974,424.98 C200.292,435.281 200.771,443.572 215.478,452.138 C225.397,457.916 241.318,461.698 253.676,461.664227 C267.88,461.624 296.687,456.711 296.687,456.711 C296.687,456.711 300.875,446.266 298.647,437.333 C317.493,434.955 344.951,420.373 333.916,388.787" id="Fill-49" fill="#894127"></path>
                <path d="M253.436,317.034 C246.429,329.148 231.522,355.406 231.522,355.406 C228.831,357.293 221.733,356.183 208.346,359.877 C198.379,362.628 192.125,361.983 185.693,361.445 C180.829,361.038 174.443,355.828 171.499,354.106 C168.554,352.385 165.397,350.466 163.397,350.989 C161.397,351.514 162.356,353.542 163.793,354.946 C165.229,356.351 167.139,357.314 167.909,358.894 C168.678,360.473 162.895,358.896 157.455,355.263 C152.015,351.63 150.187,349.545 148.768,351.198 C147.349,352.853 149.584,355.401 149.584,355.401 C149.584,355.401 146.073,352.332 144.508,352.885 C142.943,353.438 142.451,354.278 144.048,356.567 C145.645,358.855 145.645,358.855 145.645,358.855 C145.645,358.855 144.065,359.625 144.996,362.089 C145.926,364.552 148.275,365.361 148.275,365.361 C148.275,365.361 145.826,366.074 147.641,368.377 C149.455,370.68 165.716,374.319 170.493,374.457 C180.046,374.732 179.736,372.732 188.875,374.338 C198.013,375.943 226.973,376.917 232.775,376.19 C238.577,375.464 243.091,373.968 246.311,369.432 C253.663,359.075 279.335,321.712 279.335,321.712 L253.436,317.034" id="Fill-50" fill="#F0A883"></path>
                <path d="M173.494,368.719 C171.29,368.046 169.87,366.573 169.162,364.84 C160.619,363.235 152.276,360.632 144.398,357.069 C145.641,358.851 145.645,358.855 145.645,358.855 C145.645,358.855 144.065,359.625 144.996,362.089 C145.926,364.552 148.275,365.361 148.275,365.361 C148.275,365.361 145.826,366.074 147.641,368.377 C149.455,370.68 165.716,374.319 170.493,374.457 C180.046,374.732 179.736,372.732 188.875,374.338 C190.327,374.593 192.282,374.832 194.563,375.051 C187.5,373.087 180.501,370.859 173.494,368.719" id="Fill-51" fill="#DB8D67"></path>
                <path d="M253.436,317.034 C251.438,320.487 248.799,325.091 246.046,329.906 C248.148,337.878 249.9,346.632 247.241,354.414 C243.813,364.45 234.805,368.153 225.035,369.565 C211.745,371.486 198.353,372.363 184.927,372.364 C174.307,372.365 163.742,371.754 153.175,370.902 C158.889,372.69 167.282,374.364 170.493,374.457 C180.046,374.732 179.736,372.732 188.875,374.338 C198.013,375.943 226.973,376.917 232.775,376.19 C238.577,375.464 243.091,373.968 246.311,369.432 C253.663,359.075 279.335,321.712 279.335,321.712 L253.436,317.034" id="Fill-52" fill="#DB8D67"></path>
                <path d="M265.272,348.81 C268.062,342.616 275.824,330.047 277.935,324.813 C283.965,309.861 277.147,298.212 270.122,298.579 C261.618,299.024 256.771,303.117 247.904,321.812 C245.961,325.907 244.444,329.105 243.259,331.604 C252.228,336.618 256.676,342.943 265.272,348.81" id="Fill-53" fill="#EAF4F5"></path>
                <path d="M204.35,454.907 C203.602,459.188 186.047,462.539 165.113,462.539 C144.18,462.539 126.625,459.188 125.877,454.907 C125.1,450.458 142.654,446.72 165.113,446.72 C187.572,446.72 205.126,450.458 204.35,454.907" id="Fill-54" fill="#75655C"></path>
                <path d="M214.241,376.387 C213.075,383.064 191.102,388.25 165.113,388.25 C139.125,388.25 117.151,383.064 115.985,376.387 C114.762,369.376 136.731,363.431 165.113,363.431 C193.495,363.431 215.465,369.376 214.241,376.387" id="Fill-55" fill="#75655C"></path>
                <polyline id="Fill-56" fill="#75655C" points="115.985 376.387 125.877 454.907 204.35 454.907 214.241 376.387 115.985 376.387"></polyline>
                <path d="M207.405,374.447 C207.405,379.032 188.471,382.749 165.113,382.749 C141.756,382.749 122.821,379.032 122.821,374.447 C122.821,369.863 141.756,366.146 165.113,366.146 C188.471,366.146 207.405,369.863 207.405,374.447" id="Fill-57" fill="#3F2B22"></path>
                <path d="M154.95,437.346 C154.47,431.703 154.123,425.947 154.123,420.063 C154.124,406.434 155.98,392.123 162.346,376.897 C166.98,365.828 167.891,356.802 167.887,344.904 C167.887,337.25 167.516,328.389 167.516,316.947 C167.516,310.591 167.63,303.439 167.986,295.256 C168.98,272.408 174.24,258.975 179.196,251.269 C181.675,247.416 184.081,244.992 185.852,243.534 C186.738,242.805 187.466,242.318 187.965,242.017 C188.215,241.866 188.408,241.761 188.535,241.696 L188.675,241.626 L188.706,241.611 L188.711,241.609 L188.623,241.411 L188.71,241.61 L188.711,241.609 L188.623,241.411 L188.71,241.61 C189.068,241.453 189.232,241.035 189.075,240.676 C188.918,240.318 188.5,240.154 188.142,240.311 C188.036,240.355 183.121,242.546 178.004,250.502 C172.886,258.458 167.571,272.157 166.57,295.195 C166.214,303.4 166.099,310.574 166.099,316.947 C166.099,328.419 166.47,337.295 166.47,344.904 C166.467,356.746 165.582,365.476 161.039,376.351 C154.585,391.779 152.705,406.307 152.706,420.063 C152.706,426.003 153.056,431.799 153.538,437.466 C153.571,437.856 153.914,438.146 154.304,438.112 C154.694,438.079 154.983,437.736 154.95,437.346" id="Fill-58" fill="#73AB42"></path>
                <path d="M156.254,248.025 L156.267,248.056 C156.577,248.802 162.116,262.526 162.116,293.007 C162.116,297.147 162.014,301.596 161.782,306.364 C160.673,329.221 160.427,366.946 160.427,395.98 C160.427,419.215 160.585,436.879 160.585,436.88 C160.588,437.272 160.908,437.586 161.3,437.583021 C161.691,437.579 162.006,437.259 162.002,436.868 C162.002,436.865 161.992,435.764 161.977,433.746 C161.933,427.691 161.844,413.402 161.844,395.98 C161.844,366.957 162.091,329.232 163.198,306.433 C163.431,301.642 163.533,297.17 163.533,293.007 C163.534,261.366 157.595,247.554 157.555,247.463 C157.4,247.103 156.983,246.938 156.623,247.093 C156.264,247.248 156.099,247.665 156.254,248.025" id="Fill-59" fill="#36532C"></path>
                <path d="M87.441,233.065 C74.206,238.604 76.116,252.809 76.116,252.809 C76.116,252.809 87.933,238.34 106.216,247.325 C124.499,256.31 124.499,256.31 124.499,256.31 C124.499,256.31 99.93,227.838 87.441,233.065" id="Fill-60" fill="#4C6E35"></path>
                <path d="M152.24,289.61 C152.24,289.61 133.795,283.146 127.091,278.126 C120.387,273.106 113.125,267.23 113.125,267.23 C113.125,267.23 121.511,267.296 127.106,263.827 C127.106,263.827 103.243,266.291 99.898,256.633 C96.554,246.974 97.501,236.455 87.441,233.065 C87.441,233.065 102.547,223.851 109.809,230.48 C109.809,230.48 132.541,228.358 147.07,236.349 C161.599,244.338 158.391,267.01 152.24,289.61" id="Fill-61" fill="#73AB42"></path>
                <path d="M159.53,406.813 C160.355,396.015 161.71,379.995 161.71,361.703 C161.709,339.43 159.704,313.784 152.271,290.043 C144.84,266.307 131.96,244.453 110.203,229.891 C109.878,229.673 109.438,229.761 109.22,230.086 C109.002,230.411 109.09,230.851 109.415,231.069 C130.831,245.403 143.547,266.93 150.919,290.466 C158.288,313.998 160.293,339.516 160.292,361.703 C160.292,379.927 158.943,395.9 158.117,406.705 C158.087,407.095 158.379,407.436 158.769,407.465 C159.159,407.495 159.5,407.203 159.53,406.813" id="Fill-62" fill="#36532C"></path>
                <path d="M148.208,329.595 C133.574,323.585 119.673,325.088 107.234,325.588 C107.234,325.588 111.625,333.602 117.478,337.607 C117.478,337.607 109.43,336.606 100.649,333.602 C100.649,333.602 82.358,348.626 84.553,363.65 C86.748,378.675 84.553,387.188 84.553,387.188 C84.553,387.188 95.528,379.677 103.576,369.66 C111.838,359.378 117.478,344.118 129.185,337.107 C140.891,330.096 148.208,329.595 148.208,329.595" id="Fill-63" fill="#73AB42"></path>
                <path d="M161.377,354.636 C161.377,354.636 164.304,329.595 146.744,323.585 C129.185,317.575 113.088,332.099 110.161,348.626 C107.234,365.153 103.576,369.66 103.576,369.66 C103.576,369.66 113.088,360.646 120.404,351.631 C130.315,339.42 154.061,330.096 161.377,354.636" id="Fill-64" fill="#4C6E35"></path>
                <path d="M85.054,387.69 C85.057,387.687 86.095,386.65 87.956,384.795 C93.539,379.23 106.506,366.326 120.902,352.136 C125.36,347.741 129.537,344.498 133.39,342.365 C137.244,340.23 140.766,339.208 143.93,339.209 C147.528,339.214 150.691,340.507 153.505,343.109 C156.313,345.712 158.745,349.649 160.714,354.885 C162.556,359.774 164.087,367.273 165.32,375.73 C167.173,388.42 168.376,403.288 169.114,414.976 C169.483,420.82 169.736,425.87 169.897,429.459 C169.977,431.253 170.035,432.682 170.072,433.662 C170.109,434.641 170.126,435.17 170.126,435.171 C170.139,435.562 170.466,435.869 170.857,435.85734 C171.248,435.844 171.555,435.517 171.54334,435.126 C171.542,435.119 171.054,419.967 169.627,402.312 C168.913,393.484 167.964,384.031 166.722,375.525 C165.479,367.017 163.951,359.468 162.041,354.386 C160.017,349.013 157.499,344.883 154.468,342.07 C151.443,339.257 147.879,337.786 143.93,337.791982 C140.457,337.791982 136.707,338.908 132.704,341.125 C128.699,343.343 124.432,346.666 119.907,351.126 C100.708,370.05 84.053,386.686 84.052,386.687 C83.775,386.964 83.775,387.412 84.052,387.689 C84.328,387.966 84.777,387.966 85.054,387.69" id="Fill-65" fill="#73AB42"></path>
                <path d="M67.774,314.786 C60.229,315.41 60.708,287.505 71.926,282.959 C83.144,278.414 92.012,279.14 103.78,272.996 C115.547,266.853 140.853,282.17 145.497,299.858 C145.497,299.858 134.907,277.623 114.571,279.568 C94.235,281.514 67.774,314.786 67.774,314.786" id="Fill-66" fill="#73AB42"></path>
                <path d="M145.497,299.858 C145,278.948 126.24,266.954 112.675,265.328 C99.11,263.702 97.386,265.076 97.386,265.076 L111.691,277.388 C111.691,277.388 98.483,268.897 90.515,267.897 C90.515,267.897 79.072,273.617 74.199,285.708 C69.325,297.799 67.774,314.786 67.774,314.786 C67.774,314.786 84.76,312.161 101.785,298.379 C131.503,274.322 145.497,299.858 145.497,299.858" id="Fill-67" fill="#4C6E35"></path>
                <path d="M164.781,409.809 C164.781,409.804 162.547,386.98 159.147,362.115 C157.447,349.682 155.456,336.739 153.304,325.874 C152.228,320.44 151.112,315.527 149.969,311.449 C148.823,307.368 147.662,304.132 146.444,302 C143.372,296.64 140.073,292.926 136.589,290.548 C133.107,288.168 129.44,287.144 125.734,287.145997 C117.563,287.161 109.258,292.006 101.365,297.808 C93.947,303.274 85.489,307.357 78.893,310.064 C75.595,311.419 72.762,312.43 70.757,313.102 C69.754,313.438 68.957,313.689 68.413,313.856 C68.141,313.94 67.932,314.002 67.791,314.043 C67.651,314.084 67.582,314.104 67.581,314.104 C67.205,314.21 66.986,314.602 67.092,314.979 C67.198,315.355 67.59,315.574 67.966,315.468 C68.007,315.452 87.086,310.078 102.205,298.949 C110.014,293.188 118.147,288.549 125.734,288.564 C129.182,288.566 132.529,289.496 135.79,291.718 C139.048,293.942 142.219,297.477 145.214,302.705 C146.324,304.637 147.479,307.809 148.604,311.831 C152.557,325.928 156.259,350.487 158.959,371.484 C160.311,381.986 161.414,391.603 162.179,398.593 C162.561,402.089 162.859,404.928 163.062,406.893 C163.264,408.857 163.371,409.944 163.371,409.947 C163.409,410.336 163.756,410.621 164.145,410.583 C164.535,410.545 164.82,410.198 164.781,409.809" id="Fill-68" fill="#36532C"></path>
                <path d="M189.532,293.161 C202.305,284.837 216.756,284.605 230.758,298.606 C240.6,308.448 231.585,339.381 231.585,339.381 C231.585,339.381 229.313,333.142 221.221,322.361 C210.674,308.311 189.532,293.161 189.532,293.161" id="Fill-69" fill="#73AB42"></path>
                <path d="M163.196,338.832 C159.326,309.092 167.07,300.962 174.437,294.136 C174.437,294.136 180.618,294.982 187.572,302.971 C187.572,302.971 187.453,298.665 182.17,290.96 C182.17,290.96 234.647,280.716 232.015,342.604 C232.015,342.604 218.507,310.36 195.395,314.471 C169.959,318.994 163.196,338.832 163.196,338.832" id="Fill-70" fill="#4C6E35"></path>
                <path d="M232.668,342.331 C228.006,331.199 219.7,320.35 209.258,315.846 C205.55,314.252 201.539,313.511 197.542,313.511 C192.179,313.512 186.839,314.844 182.27,317.268 C174.777,321.241 169.591,326.915 166.035,333.469 C160.7,343.303 158.99,355.098 158.413,366.325 C157.84,377.55 158.404,388.236 157.712,395.773 C157.676,396.163 157.963,396.508 158.353,396.544 C158.743,396.579 159.088,396.292 159.123,395.902 C159.593,390.758 159.494,384.315 159.548,377.284 C159.626,366.741 160.05,354.885 163.176,344.263 C166.308,333.635 172.089,324.279 182.934,318.52 C187.288,316.208 192.414,314.928 197.542,314.928 C201.364,314.928 205.186,315.638 208.698,317.148 C218.63,321.404 226.815,331.983 231.361,342.878 C231.512,343.239 231.927,343.409 232.288,343.258 C232.649,343.107 232.819,342.692 232.668,342.331" id="Fill-71" fill="#73AB42"></path>
                <path d="M141.881,375.033 C147.542,372.675 148.014,370.316 150.844,373.146 C153.674,375.977 154.618,377.392 160.278,375.505 C165.939,373.618 164.996,377.863 168.769,374.562 C172.543,371.26 173.958,373.618 178.675,374.09 C183.393,374.562 183.393,374.562 189.525,375.505 C195.657,376.448 184.336,379.751 176.788,381.638 C169.241,383.524 185.279,396.732 171.128,396.732 C156.976,396.732 141.41,398.619 141.41,398.619 L141.881,389.185 L141.881,375.033" id="Fill-72" fill="#3F2B22"></path>
                <path d="M151.551,318.209 C144.024,331.553 152.257,338.578 152.257,338.578 C152.257,338.578 159.356,333.014 171.032,330.73 C171.032,330.73 162.806,334.681 155.692,340.882 C155.692,340.882 160.764,347.992 173.373,355.907 C184.764,363.058 195.737,369.448 195.737,369.448 C195.737,369.448 207.213,351.487 210.913,342.029 C214.612,332.571 190.854,327.995 190.854,327.995 C190.854,327.995 201.339,326.958 209.387,330.955 C209.387,330.955 205.552,317.77 188.859,313.321 C172.165,308.873 158.814,305.333 151.551,318.209" id="Fill-73" fill="#73AB42"></path>
                <path d="M196.42,369.259 C196.414,369.24 193.052,357.107 187.16,343.618 C184.213,336.873 180.635,329.788 176.514,323.699 C172.389,317.612 167.73,312.508 162.538,309.757 C162.192,309.574 161.763,309.707 161.58,310.053 C161.397,310.399 161.529,310.827 161.875,311.01 C166.735,313.574 171.293,318.509 175.34,324.494 C181.417,333.467 186.358,344.767 189.765,353.812 C191.47,358.335 192.793,362.295 193.69,365.122 C194.138,366.536 194.479,367.667 194.709,368.443 C194.938,369.219 195.053,369.636 195.054,369.638 C195.158,370.015 195.549,370.236 195.926,370.131 C196.303,370.027 196.524,369.636 196.42,369.259" id="Fill-74" fill="#36532C"></path>
                <path d="M206.233,376.387 C201.784,380.035 185.068,382.749 165.113,382.749 C145.159,382.749 128.443,380.035 123.993,376.387 L115.985,376.387 L125.877,454.907 L204.35,454.907 L214.241,376.387 L206.233,376.387" id="Fill-75" fill="#75655C"></path>
                <path d="M358.734,446.09 C354.149,443.6 345.15,435.582 339.817,430.459 C334.484,425.336 331.177,416.813 323.188,423.132 C320.422,425.321 316.721,427.35 312.643,429.183 L292.448,426.005 L300.568,452.555 C300.568,452.555 328.111,447.869 336.799,449.51 C350.015,452.006 357.89,455.697 362.088,454.625 C366.286,453.554 366.718,450.425 358.734,446.09" id="Fill-76" fill="#F0A883"></path>
                <path d="M318.066,432.301 C322.266,428.137 327.45,425.287 332.802,422.758 C330.234,420.578 327.346,419.844 323.188,423.132 C320.422,425.321 316.721,427.35 312.643,429.183 L292.448,426.005 L300.568,452.555 C300.568,452.555 304.615,451.867 310.092,451.11 C311.438,444.259 312.865,437.459 318.066,432.301" id="Fill-77" fill="#202725"></path>
                <path d="M322.624,427.587 C317.797,430.441 312.675,432.439 308.016,433.581 C308.578,435.143 308.947,436.78 309.174,438.409 C310.224,446.023 308.175,453.571 308.175,453.571 C308.175,453.571 280.074,461.808 265.961,463.437 C253.678,464.855 237.44,462.782 226.954,457.996 C211.397,450.894 210.02,442.489 211.565,431.676 C212.791,423.053 223.176,416.06 245.92,406.58 C257.532,401.736 273.938,394.247 285.229,386.968 C290.896,383.315 295.271,379.723 297.118,376.549 L337.778,380.092 C339.416,383.618 340.541,386.968 341.204,390.158 C344.948,407.933 334.73,420.434 322.624,427.587" id="Fill-78" fill="#A64E2D"></path>
                <path d="M308.016,433.581 C308.578,435.143 308.947,436.78 309.174,438.409 C305.707,438.283 302.172,437.938 298.646,437.334 C273.375,432.969 242.437,435.84 242.437,435.84 C242.437,435.84 256.281,430.517 275.985,429.45 C291.106,428.636 301.836,429.694 322.624,427.587 C317.797,430.441 312.675,432.439 308.016,433.581" id="Fill-79" fill="#894127"></path>
                <path d="M285.237,458.719 C265.961,463.437 257.885,460.489 242.965,457.146 C236.004,455.586 226.381,449.82 219.96,446.661 C217.107,445.258 214.322,443.712 211.509,442.223 C212.739,448.23 216.86,453.388 226.954,457.996 C237.44,462.782 253.678,464.855 265.961,463.437 C272.179,462.719 281.11,460.719 289.158,458.706 C287.852,458.717 286.508,458.407 285.237,458.719" id="Fill-80" fill="#894127"></path>
                <path d="M341.204,390.158 C333.304,391.594 326.049,393.235 313.188,392.786 C291.845,392.042 286.01,387.068 285.229,386.968 C290.896,383.315 295.271,379.723 297.118,376.549 L337.778,380.092 C339.416,383.618 340.541,386.968 341.204,390.158" id="Fill-81" fill="#202725"></path>
                <path d="M318.014,334.713 C306.709,319.423 289.266,294.215 279.189,288.499 C275.833,286.596 272.747,285.104 269.827,284.254 C262.041,293.304 258.685,305.802 255.368,316.225 C253.339,322.604 251.492,332.818 251.977,338.511 C252.508,344.746 254.688,348.039 262.6,351.504 C276.434,357.564 284.171,376.186 285.164,386.959 C285.164,386.959 298.972,390.592 320.553,389.035 C332.376,388.183 340.42,386.098 340.42,386.098 C340.42,386.098 329.317,350.003 318.014,334.713" id="Fill-82" fill="#F8C465"></path>
                <path d="M318.014,334.713 C306.709,319.423 289.266,294.215 279.189,288.499 C275.833,286.596 272.747,285.104 269.827,284.254 C268.284,286.047 266.92,287.979 265.691,289.999 C269.599,302.246 267.704,315.86 266.549,328.532 C265.965,334.937 265.235,341.324 264.436,347.704 C266.372,346.535 267.907,344.874 269.873,342.956 C273.462,339.453 279.095,345.646 281.347,341.003 C284.718,334.05 287.624,328.278 292.851,330.389 C297.953,332.449 317.351,338.91 327.313,351.399 C324.394,345.031 321.212,339.039 318.014,334.713" id="Fill-83" fill="#DEAD4F"></path>
                <path d="M244.468,290.79 C251.25,297.088 259.486,303.871 261.425,311.138 L277.412,293.213 C277.412,293.213 261.59,280.653 257.549,275.287 L244.468,290.79" id="Fill-84" fill="#F0A883"></path>
                <path d="M269.195,288.1 C269.812,288.044 270.43,288.016 271.048,287.998 C266.168,283.903 259.887,278.393 257.549,275.287 L244.468,290.79 C246.847,292.999 249.401,295.27 251.804,297.598 C256.44,292.672 261.789,288.761 269.195,288.1" id="Fill-85" fill="#DB8D67"></path>
                <path d="M264.815,277.225 C264.815,277.225 284.975,278.904 301.878,289.337 C323.884,302.917 331.431,321.313 329.009,342.629 C329.009,342.629 328.524,318.89 310.599,306.777 C281.327,287 268.747,286.625 268.747,286.625 L264.815,277.225" id="Fill-86" fill="#202725"></path>
                <path d="M209.828,270.685 C209.828,270.685 210.312,283.28 218.548,292.243 C226.784,301.206 241.318,302.66 248.586,293.213 C255.853,283.765 250.039,271.653 250.039,271.653 C250.039,271.653 223.635,259.541 216.853,261.964 C210.07,264.386 210.07,266.324 209.828,270.685" id="Fill-87" fill="#202725"></path>
                <path d="M207.769,247.793 C207.769,247.793 199.775,269.23 211.402,288.853 C223.03,308.474 229.934,319.737 229.934,330.274 C229.934,330.274 232.355,322.766 224.604,305.566 C219.123,293.404 209.585,277.951 215.762,268.867 L207.769,247.793" id="Fill-88" fill="#202725"></path>
                <path d="M211.192,247.304 C207.355,260.442 212.643,275.23 216.112,278.805 C219.582,282.378 221.887,286.322 225.665,290.859 C229.443,295.396 235.039,299.294 241.388,301.965 C247.737,304.637 252.123,296.891 254.853,288.361 C257.503,280.079 255.382,271.709 254.498,264.994 C253.614,258.28 257.845,254.423 253.8,245.097 C249.755,235.772 214.811,234.914 211.192,247.304" id="Fill-89" fill="#F0A883"></path>
                <path d="M211.822,267.632 C220.322,271.575 230.972,269.771 239.727,267.764 C244.686,266.626 249.555,265.185 254.385,263.617 C254.171,257.711 257.56,253.767 253.8,245.097 C249.755,235.772 214.811,234.914 211.192,247.304 C209.197,254.137 209.672,261.412 211.073,267.328 C211.325,267.419 211.576,267.518 211.822,267.632" id="Fill-90" fill="#DB8D67"></path>
                <path d="M252.211,256.32 C252.211,256.32 251.814,281.323 263.521,291.036 C272.302,298.323 277.533,296.081 277.533,296.081 C277.533,296.081 272.591,295.068 267.359,280.495 C262.128,265.922 261.278,256.285 261.278,256.285 L252.211,256.32" id="Fill-91" fill="#202725"></path>
                <path d="M212.962,262.927 C212.962,262.927 218.643,271.094 252.896,265.624 L265.058,281.101 C265.058,281.101 274.263,265.112 267.965,247.187 C261.667,229.262 240.966,224.985 227.577,231.242 C214.188,237.498 212.962,262.927 212.962,262.927" id="Fill-92" fill="#202725"></path>
                <path d="M235.846,269.179 C235.846,269.179 232.001,269.873 230.287,270.737 C228.574,271.602 227.837,272.758 227.215,272.493 C226.593,272.229 227.417,270.865 229.218,269.794 C231.02,268.722 233.858,268.091 235.846,269.179" id="Fill-93" fill="#141B26"></path>
                <path d="M236.229,295.567 C235.646,295.707 234.424,296.23 233.667,295.218 C232.911,294.205 232.91,294.205 232.91,294.205 C232.91,294.205 236.218,292.165 237.603,291.055 C238.987,289.945 240.32,288.355 240.32,288.355 C240.32,288.355 239.834,291.257 238.745,292.901 C237.655,294.547 236.229,295.567 236.229,295.567" id="Fill-94" fill="#FFFFFE"></path>
                <path d="M240.643,287.884 C240.666,287.263 239.079,289.048 237.675,289.823 C236.526,290.458 234.735,290.824 234.124,291.161 C232.766,291.91 232.646,292.276 231.966,292.42 C230.817,292.661 231.679,293.793 232.112,294.11 C232.601,294.469 232.864,294.354 233.864,293.941 C234.864,293.529 236.228,292.854 237.476,291.803 C238.725,290.752 240.643,287.884 240.643,287.884" id="Fill-95" fill="#DB3344"></path>
                <path d="M233.667,295.218 C233.667,295.218 233.516,295.67 233.854,296.085 C234.201,296.51 235.274,297.418 236.596,297.05 C238.413,296.543 239.237,294.985 239.518,293.273 C240.013,290.262 240.643,287.884 240.643,287.884 C240.643,287.884 239.833,288.868 238.664,290.937 C237.677,292.682 237.739,293.642 236.407,294.288 C234.401,295.262 233.667,295.218 233.667,295.218" id="Fill-96" fill="#DB3344"></path>
                <path d="M223.706,278.595 C225.953,282.477 226.132,284.025 226.62,286.933 C226.803,288.023 226.955,288.774 227.18,289.296 C227.294,289.556 227.43,289.766 227.619,289.917 C227.807,290.068 228.044,290.139 228.283,290.137041 C228.609,290.135 228.95,290.029 229.362,289.864 C230.972,289.214 232.05,288.429 232.062,288.421 L231.729,287.962 C231.729,287.962 231.669,288.006 231.548,288.086 C231.187,288.326 230.308,288.871 229.15,289.339 C228.766,289.495 228.475,289.572 228.283,289.57 C228.14,289.568 228.058,289.539 227.971,289.472 C227.842,289.375 227.696,289.132 227.566,288.695 C227.434,288.261 227.314,287.648 227.179,286.84 C226.7,283.951 226.474,282.226 224.196,278.311 L223.706,278.595" id="Fill-97" fill="#2B3033"></path>
                <path d="M230.18,276.003 C230.447,276.665 231.099,277.026 231.636,276.81 C232.172,276.593 232.391,275.881 232.123,275.219 C231.855,274.557 231.204,274.195 230.667,274.412 C230.131,274.629 229.913,275.342 230.18,276.003" id="Fill-98" fill="#141B26"></path>
                <path d="M215.912,278.606 C215.912,278.606 217.527,277.095 218.543,276.855 C219.56,276.617 220.416,277.131 220.476,276.591 C220.536,276.051 219.54,275.422 218.385,275.545 C217.229,275.668 215.973,276.691 215.912,278.606" id="Fill-99" fill="#141B26"></path>
                <path d="M218.91,281.931 C219.178,282.593 219.83,282.954 220.366,282.737 C220.902,282.521 221.121,281.808 220.853,281.146 C220.586,280.484 219.934,280.123 219.397,280.34 C218.861,280.557 218.643,281.269 218.91,281.931" id="Fill-100" fill="#141B26"></path>
                <path d="M216.853,256.514 C216.853,256.514 209.949,263.78 213.946,275.408 C213.946,275.408 207.769,269.958 206.679,260.511 C205.588,251.063 206.679,239.799 222.666,236.166 L216.853,256.514" id="Fill-101" fill="#202725"></path>
                <path d="M263.12,286.914 C263.521,291.036 282.499,292.243 286.375,310.169 C290.251,328.095 303.816,331.486 315.928,339.237 C328.04,346.989 330.946,352.318 330.946,352.318 C330.946,352.318 333.174,312.571 313.021,299.026 C283.468,279.162 263.12,286.914 263.12,286.914" id="Fill-102" fill="#202725"></path>
                <path d="M259.614,314.975 C257.036,328.729 251.711,358.45 251.711,358.45 C249.801,361.124 242.737,362.438 231.341,370.375 C222.857,376.284 216.744,377.757 210.5,379.388 C205.777,380.621 198.022,377.833 194.672,377.188 C191.323,376.544 187.708,375.784 185.996,376.943 C184.284,378.103 185.863,379.696 187.685,380.543 C189.507,381.39 191.628,381.664 192.879,382.897 C194.13,384.131 188.151,384.566 181.813,382.949 C175.475,381.333 173.057,379.975 172.269,382.006 C171.48,384.038 174.436,385.698 174.436,385.698 C174.436,385.698 170.104,383.972 168.812,385.013 C167.52,386.055 167.336,387.012 169.603,388.639 C171.87,390.266 171.87,390.266 171.87,390.266 C171.87,390.266 170.637,391.518 172.333,393.531 C174.03,395.545 176.515,395.526 176.515,395.526 C176.515,395.526 174.442,397.013 176.919,398.581 C179.396,400.149 195.942,398.174 200.493,396.715 C209.593,393.797 208.636,392.014 217.788,390.488 C226.94,388.963 254.576,380.25 259.806,377.635 C265.036,375.02 268.795,372.107 270.323,366.759 C273.812,354.547 285.596,310.771 285.596,310.771 L259.614,314.975" id="Fill-103" fill="#F0A883"></path>
                <path d="M274.626,351.232 C279.367,333.908 285.596,310.771 285.596,310.771 L259.615,314.975 C258.685,319.938 257.396,326.978 256.13,333.951 C262.795,339.171 268.887,345.027 274.626,351.232" id="Fill-104" fill="#DB8D67"></path>
                <path d="M246.394,380.901 C234.2,383.319 222.464,387.334 210.146,389.237 C207.002,389.723 203.853,390.133 200.698,390.49 C191.983,392.634 183.169,394.262 174.236,394.97 C175.448,395.53 176.515,395.526 176.515,395.526 C176.515,395.526 174.442,397.013 176.919,398.581 C179.396,400.149 195.942,398.174 200.493,396.715 C209.593,393.797 208.636,392.014 217.788,390.488 C226.94,388.963 254.576,380.25 259.806,377.635 C261.157,376.959 262.408,376.262 263.55,375.509 C258.346,378.526 251.648,379.86 246.394,380.901" id="Fill-105" fill="#DB8D67"></path>
                <path d="M281.347,341.003 C281.916,334.235 285.057,319.8 285.306,314.161 C286.02,298.057 275.717,289.337 269.213,292.021 C261.341,295.269 258.132,300.74 255.987,321.319 C255.517,325.829 255.149,329.35 254.863,332.1 C264.989,333.846 271.287,338.331 281.347,341.003" id="Fill-106" fill="#EAF4F5"></path>
                <path d="M245.42,258.013 C245.6,256.132 249.072,252.765 252.923,257.099 C256.131,260.711 255.055,263.065 255.203,268.467 C255.304,272.132 252.022,272.902 252.022,272.902 C252.022,272.902 245.032,262.066 245.42,258.013" id="Fill-107" fill="#F0A883"></path>
                <path d="M247.92,259.485 C247.956,257.352 249.878,257.42 251.363,258.376 C252.849,259.333 252.795,261.946 252.795,261.946 C252.795,261.946 251.803,259.007 250.338,259.09 C248.873,259.173 247.606,262.725 249.657,263.826 C251.709,264.928 253.08,264.207 252.896,265.624 C252.711,267.04 254.237,267.383 253.172,268.711 C252.105,270.039 252.242,268.89 250.735,266.894 C249.229,264.897 250.656,266.948 249.387,264.788 C248.116,262.628 247.888,261.321 247.92,259.485" id="Fill-108" fill="#DB8D67"></path>
                <path d="M234.465,438.662 C234.465,438.662 234.626,438.604 234.954,438.495 C237.25,437.731 247.541,434.56 263.766,433.24 C265.682,433.084 267.556,433.019 269.405,433.019 C278.378,433.017 286.792,434.552 296.666,434.554 C301.959,434.554 307.668,434.11 314.094,432.746 L313.886,431.768 C307.534,433.116 301.903,433.554 296.666,433.554 C286.901,433.556 278.497,432.021 269.405,432.019 C267.532,432.019 265.632,432.084 263.685,432.243 C245.033,433.761 234.157,437.71 234.123,437.722 L234.465,438.662" id="Fill-109" fill="#202725"></path>
                <path d="M310.451,91.218 C310.451,91.218 304.49,89.921 297.742,85.639 C289.682,80.523 287.982,68.22 291.415,60.186 C291.618,59.71 291.836,59.275 292.068,58.883 C293.084,57.161 294.347,56.215 295.636,55.89 C296.174,55.752 296.718,55.723 297.25,55.8 C300.057,56.171 302.527,59.288 302.235,63.521 C301.881,68.627 303.119,75.531 305.754,79.86 L305.757,79.866 C306.938,81.801 308.397,83.222 310.116,83.735 L310.451,91.218" id="Fill-110" fill="#219445"></path>
                <path d="M331.648,99.138 C330.448,100.461 328.768,101.503 326.883,102.326 C320.346,105.173 311.355,105.363 311.355,105.363 L311.567,104.214 L312.349,99.995 C316.693,98.452 322.866,97.36 324.172,89.31 C325.145,83.318 325.935,78.544 329.299,77.439 C330.239,77.127 331.38,77.106 332.784,77.427 C333.104,77.497 333.438,77.588 333.789,77.696 C334.317,77.86 334.789,78.078 335.207,78.341 L335.627,78.635 C340.436,82.349 337.129,93.103 331.648,99.138" id="Fill-111" fill="#219445"></path>
                <path d="M311.932,102.244 L312.349,99.995 C321.409,97.307 325.989,95.435 327.771,86.808 C328.559,82.979 329.026,79.796 329.299,77.439 C330.239,77.127 331.38,77.106 332.784,77.427 C332.396,82.712 331.518,90.317 329.591,93.096 C327.063,96.743 315.848,100.884 311.932,102.244" id="Fill-112" fill="#6EB760"></path>
                <path d="M333.275,95.295 C331.974,97.92 329.553,100.305 326.883,102.326 C320.346,105.173 311.355,105.363 311.355,105.363 L311.567,104.214 C316.326,103.277 326.173,100.839 329.892,96.173 C333.68,91.413 334.859,82.389 335.207,78.341 L335.627,78.635 C335.953,82.301 336.123,89.56 333.275,95.295" id="Fill-113" fill="#6EB760"></path>
                <path d="M308.499,123.811 C311.023,125.245 313.903,125.996 317.001,125.442 C318.142,125.239 319.23,124.893 320.271,124.448 C320.105,117.579 320.085,101.669 320.175,98.301 C320.276,94.481 320.398,86.718 320.205,78.759 C320.037,71.95 319.638,65 318.796,60.251 C318.394,57.992 317.646,56.371 316.708,55.285 C316.084,54.552 315.376,54.06 314.634,53.773 C311.462,52.547 307.709,55.088 307.356,58.699 C307.324,59.013 307.294,59.383 307.265,59.805 C306.76,66.887 306.344,88.156 307.434,96.774 C307.965,100.991 308.237,116.967 308.499,123.811" id="Fill-114" fill="#6EB760"></path>
                <path d="M308.499,123.811 C309.522,124.393 310.604,124.863 311.734,125.178 C311.376,119.53 311.101,105.231 310.774,101.137 C309.985,91.204 309.582,82.098 307.265,59.805 C306.76,66.887 306.344,88.156 307.434,96.774 C307.965,100.991 308.237,116.967 308.499,123.811" id="Fill-115" fill="#219445"></path>
                <path d="M320.271,124.448 C320.105,117.579 320.085,101.669 320.175,98.301 C320.276,94.481 320.398,86.718 320.205,78.759 L317.681,125.303 C318.576,125.096 319.438,124.804 320.271,124.448" id="Fill-116" fill="#219445"></path>
                <path d="M308.509,88.17 C307.664,87.849 298.597,84.284 296.012,78.989 C293.645,74.146 292.214,66.294 292.068,58.883 C293.084,57.161 294.347,56.215 295.636,55.89 C295.194,59.874 294.748,66.072 295.624,70.14 C298.578,83.869 307.663,87.83 308.509,88.17" id="Fill-117" fill="#6EB760"></path>
                <path d="M297.341,68.925 C296.021,62.955 296.707,58.174 297.25,55.8 C300.057,56.171 302.527,59.288 302.235,63.521 C301.881,68.627 303.119,75.531 305.754,79.86 L305.757,79.866 C306.187,81.161 306.499,81.936 306.499,81.936 C306.499,81.936 299.242,77.55 297.341,68.925" id="Fill-118" fill="#6EB760"></path>
                <path d="M313.764,125.558 C314.725,125.657 315.715,125.634 316.729,125.478 L314.954,53.922 C314.848,53.871 314.742,53.815 314.634,53.773 C313.312,53.262 311.89,53.413 310.653,54.016 L313.764,125.558" id="Fill-119" fill="#219445"></path>
                <path d="M392.578,103.811 C393.011,94.484 400.366,91.459 399.382,82.421 C398.396,73.383 397.756,72.583 399.069,67.597 C400.382,62.61 401.788,57.762 399.739,50.546 C398.549,46.351 398.971,44.317 400.649,40.46 C402.24,36.808 401.248,32.464 399.12,31.429 C395.267,29.554 392.917,35.748 393.666,40.514 C394.415,45.28 391.71,45.431 390.001,52.425 C388.292,59.419 392.517,64.409 390.048,68.832 C387.579,73.256 383.056,76.436 384.052,83.279 C385.048,90.122 388.99,100.109 386.786,103.194 L392.578,103.811" id="Fill-120" fill="#1C783E"></path>
                <path d="M393.605,85.479 C393.325,84.678 393.029,83.924 392.735,83.185 C394.179,60.392 396.779,38.795 396.779,38.788 L397.781,38.909 C397.781,38.911 397.706,39.535 397.574,40.689 C397.441,41.843 397.252,43.524 397.024,45.63 C396.569,49.842 395.96,55.756 395.347,62.561 C394.717,69.552 394.083,77.486 393.605,85.479" id="Fill-121" fill="#82B98D"></path>
                <path d="M384.339,117.283 C380.959,108.58 373.023,108.055 371.079,99.173 C369.135,90.292 369.486,89.329 366.654,85.021 C363.823,80.712 360.946,76.564 360.59,69.072 C360.383,64.716 359.336,62.921 356.516,59.8 C353.846,56.844 353.402,52.41 355.09,50.752 C358.146,47.747 362.345,52.871 363.152,57.627 C363.96,62.384 366.573,61.666 370.42,67.752 C374.268,73.838 371.851,79.913 375.6,83.32 C379.349,86.727 384.649,88.301 385.884,95.105 C387.118,101.909 386.562,112.632 389.634,114.855 L384.339,117.283" id="Fill-122" fill="#1C783E"></path>
                <path d="M379.642,102.792 C379.169,102.491 378.691,102.209 378.215,101.941 C370.668,83.078 362.073,64.518 359.504,59.038 C359.011,57.986 358.741,57.418 358.74,57.417 L359.652,56.983 C359.655,56.99 370.524,79.849 379.642,102.792" id="Fill-123" fill="#82B98D"></path>
                <path d="M400.988,115.564 C404.369,106.861 412.305,106.336 414.249,97.454 C416.192,88.573 415.841,87.61 418.673,83.302 C421.505,78.993 424.382,74.845 424.737,67.352 C424.944,62.997 425.992,61.202 428.811,58.081 C431.482,55.125 431.925,50.691 430.238,49.033 C427.182,46.029 422.982,51.152 422.175,55.909 C421.367,60.665 418.755,59.947 414.907,66.033 C411.06,72.119 413.477,78.194 409.728,81.601 C405.978,85.008 400.679,86.582 399.444,93.386 C398.21,100.19 398.767,110.913 395.694,113.135 L400.988,115.564" id="Fill-124" fill="#1C783E"></path>
                <path d="M407.082,100.297 C406.975,99.643 406.861,99.016 406.755,98.404 C415.631,76.391 425.673,55.271 425.676,55.264 L426.588,55.697 C426.587,55.699 426.317,56.267 425.824,57.319 C425.331,58.37 424.616,59.903 423.73,61.827 C421.957,65.675 419.497,71.087 416.749,77.343 C413.699,84.284 410.295,92.264 407.082,100.297" id="Fill-125" fill="#82B98D"></path>
                <path d="M401.011,109.681 C404.518,106.664 408.088,99.19 411.053,93.706 C414.017,88.221 419.519,91.919 421.52,88.552 C423.787,84.737 425.281,81.159 430.495,79.975 C437.091,78.478 436.697,76.963 442.035,73.869 C445.38,71.931 447.593,75.629 442.049,79.757 C435.737,84.456 438.128,84.842 432.858,89.925 C427.59,95.008 425.363,89.037 423.333,96.592 C421.302,104.148 413.675,102.497 410.406,105.48 C407.138,108.464 405.274,114.542 405.274,114.542 L401.011,109.681" id="Fill-126" fill="#87C052"></path>
                <path d="M407.547,104.397 C407.524,103.929 407.49,103.475 407.448,103.037 C414.881,96.112 425.599,87.017 435.111,81.356 L435.654,82.269 C425.995,88.008 414.962,97.442 407.547,104.397" id="Fill-127" fill="#C4DDA0"></path>
                <path d="M401.052,122.28 C401.364,116.318 407.585,112.859 407.585,105.881 C407.585,98.903 405.097,95.413 406.963,89.831 C408.83,84.248 414.118,80.759 412.563,74.129 C411.008,67.5 410.696,61.917 412.874,57.381 C415.052,52.845 419.097,42.378 414.74,39.586 C410.385,36.795 406.186,43.682 405.719,52.845 C405.097,65.058 398.406,66.245 397.008,74.479 C395.763,81.806 399.808,84.597 397.63,89.831 C395.452,95.064 389.113,101.187 390.785,111.813 C391.719,117.745 391.407,127.514 391.407,127.514 L401.052,128.91 C401.052,128.91 400.741,128.212 401.052,122.28" id="Fill-128" fill="#249A46"></path>
                <path d="M397.549,122.65 L396.466,122.608 C397.292,101.589 405.97,64.667 409.807,52.193 C410.359,50.406 410.804,49.13 411.141,48.419 L412.119,48.884 C411.834,49.481 411.384,50.751 410.843,52.512 C410.299,54.276 409.656,56.545 408.95,59.197 C407.537,64.501 405.877,71.338 404.264,78.756 C401.04,93.591 398.012,110.767 397.549,122.65" id="Fill-129" fill="#8BC586"></path>
                <path d="M380.246,123.01 C377.993,118.964 371.224,119.192 368.917,114.299 C366.61,109.407 367.709,105.9 364.175,102.782 C360.642,99.664 354.705,99.473 353.921,94.162 C353.137,88.851 351.573,84.805 348.103,82.553 C344.635,80.302 337.517,74.688 340.534,70.874 C343.552,67.06 349.626,70.097 353.077,76.322 C357.676,84.618 364.12,82.598 368.106,87.773 C371.653,92.38 368.918,96.061 372.617,98.802 C376.317,101.542 384.074,103.132 386.073,111.294 C387.189,115.851 390.7,122.567 390.7,122.567 L382.437,127.658 C382.437,127.658 382.488,127.036 380.246,123.01" id="Fill-130" fill="#87C052"></path>
                <path d="M383.542,121.786 C375.965,107.592 355.891,85.357 348.378,78.336 C347.31,77.336 346.485,76.64 346.048,76.355 L346.642,75.449 C347.199,75.817 348.025,76.524 349.118,77.545 C350.207,78.564 351.547,79.889 353.07,81.454 C356.114,84.585 359.885,88.68 363.806,93.206 C371.649,102.261 380.084,113.023 384.497,121.275 L383.542,121.786" id="Fill-131" fill="#C4DDA0"></path>
                <path d="M390.711,115.19 C393.101,111.769 395.451,97.122 395.175,93.158 C394.465,82.991 389.846,81.26 390.404,71.107 C390.964,60.954 389.637,55.875 385.605,53.086 C381.573,50.296 381.851,47.221 378.176,40.478 C374.501,33.735 367.019,33.577 368.773,41.83 C370.527,50.083 375.225,53.41 374.749,58.682 C374.273,63.954 375.56,69.472 377.785,76.457 C380.011,83.441 376.093,87.816 378.997,97.897 C381.795,107.61 387.415,120.067 387.415,120.067 L390.711,115.19" id="Fill-132" fill="#5C9642"></path>
                <path d="M389.497,127.569 L388.355,127.555 C388.37,126.356 388.377,125.17 388.378,123.998 L389.519,123.295 C389.52,123.488 389.52,123.679 389.52,123.873 C389.52,125.091 389.512,126.323 389.497,127.569 M389.496,120.129 C389.23,119.568 388.937,118.937 388.635,118.261 L389.44,117.07 C389.464,118.08 389.483,119.097 389.496,120.129" id="Fill-133" fill="#F3F9F7"></path>
                <path d="M388.378,123.998 C388.378,123.956 388.378,123.915 388.378,123.873 C388.378,122.122 388.362,120.402 388.332,118.71 L388.635,118.261 C388.937,118.937 389.23,119.568 389.496,120.129 C389.509,121.171 389.517,122.23 389.519,123.295 L388.378,123.998" id="Fill-134" fill="#C4DDA0"></path>
                <path d="M388.332,118.71 C387.622,78.847 378.886,55.629 377.772,52.824 C377.694,52.629 377.655,52.537 377.655,52.536 L378.708,52.093 C378.73,52.146 388.461,75.286 389.44,117.07 L388.635,118.261 L388.332,118.71" id="Fill-135" fill="#AAC882"></path>
                <path d="M424.927,101.824 L424.927,113.404 C424.927,129.756 416.027,144.92 401.457,153.395 L376.381,153.395 C361.812,144.92 352.912,129.756 352.912,113.404 L352.912,101.824 L424.927,101.824" id="Fill-136" fill="#75655C"></path>
                <path d="M411.365,145.763 C408.458,148.674 405.143,151.251 401.457,153.395 L376.381,153.395 C372.695,151.251 369.381,148.674 366.474,145.763 L411.365,145.763" id="Fill-137" fill="#5C5048"></path>
                <polyline id="Fill-138" fill="#75655C" points="336.588 108.039 332.907 151.53 295.704 151.53 292.023 108.039 336.588 108.039"></polyline>
                <polyline id="Fill-139" fill="#5C5048" points="295.033 143.604 295.704 151.53 332.907 151.53 333.578 143.604 295.033 143.604"></polyline>
                <path d="M270.943,131.094 C267.608,132.173 263.78,132.769 259.621,132.432 C258.091,132.308 256.625,132.08 255.22,131.781 C255.245,126.841 254.816,115.406 254.6,112.988 C254.354,110.244 253.968,104.667 253.999,98.943 C254.028,94.046 254.363,89.044 255.353,85.615 C255.826,83.983 256.778,82.804 258.003,82.004 C258.815,81.466 259.749,81.099 260.732,80.878 C264.938,79.935 270.03,81.687 270.604,84.276 C270.656,84.501 270.708,84.766 270.76,85.069 C271.638,90.149 272.803,105.426 271.593,111.642 C271.003,114.683 271.097,126.169 270.943,131.094" id="Fill-140" fill="#219445"></path>
                <path d="M270.943,131.094 C269.591,131.531 268.159,131.891 266.655,132.139 C266.973,128.073 266.932,117.791 267.25,114.842 C268.021,107.688 268.3,101.136 270.76,85.069 C271.638,90.149 272.803,105.426 271.593,111.642 C271.003,114.683 271.097,126.169 270.943,131.094" id="Fill-141" fill="#6EB760"></path>
                <path d="M259.621,132.432 L259.505,132.42 C259.722,128.61 259.597,116.553 259.396,113.179 C259.16,109.271 258.38,90.998 258.003,82.004 C258.815,81.466 259.749,81.099 260.732,80.878 C260.809,85.765 260.967,99.219 260.517,103.131 C259.956,107.943 261.48,124.909 261.48,124.909 C261.48,124.909 261.448,117.413 262.284,109.347 C263.124,101.283 263.928,85.721 263.928,85.721 L265.38,132.317 C263.548,132.537 261.624,132.594 259.621,132.432" id="Fill-142" fill="#6EB760"></path>
                <path d="M255.22,131.781 C255.245,126.841 254.816,115.406 254.6,112.988 C254.354,110.244 253.968,104.667 253.999,98.943 L258.709,132.344 C257.506,132.213 256.344,132.02 255.22,131.781" id="Fill-143" fill="#6EB760"></path>
                <polyline id="Fill-144" fill="#75655C" points="279.272 118.441 276.506 150.416 248.55 150.416 245.784 118.441 279.272 118.441"></polyline>
                <polyline id="Fill-145" fill="#5C5048" points="248.17 146.022 248.55 150.416 276.506 150.416 276.886 146.022 248.17 146.022"></polyline>
                <polygon id="Fill-146" fill="#DB8D67" points="239.08 159.068 431.816 159.068 431.816 149.785 239.08 149.785"></polygon>
                <path d="M75.079,147.157 C72.353,153.807 70.999,160.984 70.999,168.161 C70.999,176.431 72.796,184.703 76.373,192.172 C76.542,192.525 76.965,192.674 77.318,192.505 C77.671,192.336 77.82,191.913 77.651,191.56 C74.171,184.292 72.416,176.226 72.416,168.161 C72.416,161.162 73.737,154.165 76.39,147.695 C76.539,147.333 76.366,146.919 76.004,146.771 C75.642,146.622 75.228,146.795 75.079,147.157" id="Fill-147" fill="#51612F"></path>
                <path d="M121.986,116.751 C126.428,114.202 130.852,113.068 135.043,113.067 C142.637,113.068 149.503,116.801 154.247,122.811 C158.702,128.455 160.384,135.703 160.384,143.107 C160.384,146.356 160.06,149.629 159.51,152.798 C158.279,159.907 156.005,167.114 155.999,174.463 C155.999,175.862 156.083,177.266 156.273,178.674 C156.839,182.836 158.763,186.983 161.575,190.127 C164.383,193.266 168.118,195.42 172.285,195.422 C172.871,195.422 173.463,195.38 174.061,195.291 C174.448,195.234 174.716,194.874 174.659,194.487 C174.601,194.1 174.241,193.832 173.854,193.889 C173.325,193.967 172.802,194.005 172.285,194.005 C168.627,194.007 165.249,192.105 162.631,189.182 C160.015,186.264 158.197,182.344 157.678,178.484 C157.497,177.146 157.417,175.806 157.417,174.463 C157.411,167.41 159.644,160.273 160.906,153.04 C161.469,149.802 161.801,146.45 161.801,143.107 C161.801,135.498 160.077,127.916 155.36,121.933 C150.388,115.627 143.113,111.649 135.043,111.649999 C130.595,111.649 125.917,112.86 121.281,115.522 C120.941,115.716 120.824,116.149999 121.019,116.489 C121.213,116.828 121.647,116.946 121.986,116.751" id="Fill-148" fill="#A4B73A"></path>
                <path d="M40.455,108.773 C36.88,115.016 40.938,119.34 40.938,119.34 C40.938,119.34 49.886,108.652 61.956,111.73 C74.923,115.037 85.902,118.937 85.902,118.937 C85.902,118.937 67.899,106.446 55.765,105.554 C43.63,104.662 40.455,108.773 40.455,108.773" id="Fill-149" fill="#336042"></path>
                <path d="M93.526,109.638 C93.472,114.325 92.866,119.042 92.299,122.672 C92.299,122.672 69.048,120.41 64.407,114.803 C61.796,111.636 56.553,109.421 51.338,108.493 C47.284,107.757 43.243,107.793 40.450875,108.768 C40.450875,108.768 40.273,102.983 53.349,102.611 C56.059,102.536 58.282,101.965 60.194,101.115 C67.644,97.855 70.932,90.438 82.035,90.827 C85.762,90.948 88.349,92.488 90.104,94.903 C92.756,98.516 93.559,104.05 93.526,109.638" id="Fill-150" fill="#249A46"></path>
                <path d="M95.171,130.375 C95.573,130.395 95.976,130.418 96.378,130.437 C84.114,101.728 71.246,101.095 61.456,101.369 L59.424,101.793 C68.908,101.529 82.195,99.711 95.171,130.375" id="Fill-151" fill="#336042"></path>
                <path d="M177.818,106.608 C183.629,113.476 178.678,118.594 178.678,118.594 C178.678,118.594 164.843,106.994 148.703,111.146 C131.364,115.607 116.841,120.629 116.841,120.629 C116.841,120.629 139.776,105.495 156.32,103.813 C172.864,102.13 177.818,106.608 177.818,106.608" id="Fill-152" fill="#336042"></path>
                <path d="M105.026,110.527 C105.776,115.83 107.288,121.134 108.591,125.211 C108.591,125.211 140.21,121.363 145.779,114.759 C148.91,111.031 155.794,108.233 162.825,106.894 C168.289,105.836 173.847,105.653 177.823,106.601 C177.823,106.601 177.234,100.044 159.215,100.348 C155.48,100.413 152.343,99.89 149.594,99.034 C138.888,95.757 133.301,87.544 118.103,88.6 C113,88.943 109.667,90.829 107.603,93.66 C104.48,97.896 104.175,104.205 105.026,110.527" id="Fill-153" fill="#249A46"></path>
                <path d="M107.048,130.82 C120.334,98.745 138.096,99.977 150.749,99.759 L147.896,99.391 C134.891,99.615 118.075,100.951 105.492,130.775 C106.011,130.791 106.529,130.806 107.048,130.82" id="Fill-154" fill="#336042"></path>
                <path d="M99.282,130.56 C99.553,130.571 99.824,130.583 100.095,130.594 C98.839,123.156 97.789,116.131 97.17,110.375 C93.016,71.765 107.933,69.713 117.788,67.244 L115.695,67.41 C105.492,69.967 92.283,74.429 96.005,110.457 C96.352,113.813 97.628,121.398 99.282,130.56" id="Fill-155" fill="#336042"></path>
                <path d="M153.624,76.747 C143.493,75.107 110.258,70.588 100.572,80.278 C100.572,80.278 96.625,79.181 98.533,74.91 C100.865,71.527 106.262,68.94 109.197,67.962 C115.507,65.848 122.545,65.276 129.399,65.521 C132.567,65.641 135.775,65.931 138.674,66.943 C141.667,68.006 144.128,69.806 146.539,71.565 C148.901,73.297 151.264,75.03 153.624,76.747" id="Fill-156" fill="#336042"></path>
                <path d="M96.115,96.442 C96.133,95.885 107.214,95.805 114.36,79.444 C118.15,70.77 156.563,77.257 156.563,77.257 C156.563,77.257 140.139,73.768 126.765,68.827 C117.441,65.382 103.37,70.605 99.876,74.093 C90.978,82.975 96.115,96.442 96.115,96.442" id="Fill-157" fill="#73AB42"></path>
                <path d="M88.423,84.46 C89.078,85.894 89.778,87.295 90.417,88.739 C91.662,91.647 92.984,94.51 94.165,97.455 C95.329,100.407 96.558,103.328 97.668,106.307 L100.951,115.267 C102.672,120.432 104.44,125.581 106.029,130.791 C106.275,130.798 106.522,130.805 106.769,130.812 C105.152,125.508 103.346,120.266 101.587,115.01 L98.282,106.018 C97.164,103.028 95.927,100.095 94.754,97.13 C93.565,94.175 92.233,91.297 90.979,88.377 C90.333,86.929 89.637,85.511 88.956,84.085 C88.264,82.667 87.607,81.223 86.864,79.843 L84.688,75.664 L82.368,71.611 C80.77,68.966 79.148,66.322 77.311,63.976 C80.687,69.055 83.609,74.593 86.39,80.207 C87.113,81.59 87.751,83.038 88.423,84.46" id="Fill-158" fill="#336042"></path>
                <polygon id="Fill-159" fill="#75655C" points="62.912 127.835 160.077 127.835 160.077 117.437 62.912 117.437"></polygon>
                <path d="M156.729,127.835 L66.261,127.835 L66.261,135.085 C66.261,160.067 86.513,180.319 111.495,180.319 C136.477,180.319 156.729,160.067 156.729,135.085 L156.729,127.835" id="Fill-160" fill="#75655C"></path>
                <polygon id="Fill-161" fill="#5C5048" points="66.261 132.81 156.729 132.81 156.729 127.835 66.261 127.835"></polygon>
                <polygon id="Fill-162" fill="#75655C" points="77.199 117.956 78.199 117.956 78.199 0 77.199 0"></polygon>
                <polygon id="Fill-163" fill="#75655C" points="144.79 117.956 145.79 117.956 145.79 0 144.79 0"></polygon>
                <polygon id="Fill-164" fill="#75655C" points="66.501 117.956 67.501 117.956 67.501 0 66.501 0"></polygon>
                <polygon id="Fill-165" fill="#75655C" points="153.849 117.956 154.849 117.956 154.849 0 153.849 0"></polygon>
                <path d="M123.17,117.365 C128.394,117.541 132.402,119.825 135.185,123.563 C137.961,127.303 139.472,132.537 139.471,138.533 C139.471,144.357 138.048,150.891 135.028,157.433 C129.056,170.387 124.934,180.419 124.925,189.411 C124.921,194.508 126.278,199.258 129.363,203.877 C129.58,204.203 130.02,204.291 130.345,204.074 C130.671,203.857 130.759,203.417 130.542,203.091 C127.604,198.678 126.346,194.26 126.342,189.411 C126.332,180.869 130.343,170.951 136.315,158.027 C139.414,151.312 140.887,144.587 140.888,138.533 C140.887,132.303 139.328,126.774 136.323,122.719 C133.325,118.663 128.841,116.122 123.216,115.947602 C122.825,115.935 122.497,116.242 122.485,116.633 C122.472,117.025 122.779,117.352 123.17,117.365" id="Fill-166" fill="#51612F"></path>
                <path d="M89.353,116.412 C89.012,116.39 88.67,116.379 88.33,116.379 C82.052,116.389 75.934,120 73.287,125.429 C72.143,127.788 71.672,130.316 71.673,132.858 C71.674,136.413 72.584,140.002 73.87,143.301 C76.076,148.942 79.286,154.115 81.029,159.682 C82.181,163.35 82.691,167.153 82.691,170.988 C82.692,176.245 81.731,181.561 80.157,186.647 C77.434,195.447 72.945,203.711 68.455,211.952 C68.268,212.295 68.394,212.726 68.738,212.913 C69.082,213.1 69.512,212.973 69.699,212.63 C74.188,204.388 78.73,196.046 81.511,187.066 C83.119,181.87 84.109,176.418 84.109,170.988 C84.109,167.028 83.582,163.079 82.382,159.257 C80.557,153.463 77.323,148.266 75.19,142.786 C73.947,139.602 73.089,136.169 73.09,132.858 C73.09,130.488 73.526,128.185 74.562,126.048 C76.914,121.172 82.593,117.787 88.33,117.797 C88.641,117.797 88.952,117.806 89.262,117.826 C89.653,117.851 89.99,117.555 90.015,117.164 C90.04,116.774 89.744,116.437 89.353,116.412" id="Fill-167" fill="#51612F"></path>
                <path d="M97.512,117.99 C98.374,117.818 99.169,117.738 99.901,117.738 C101.77,117.741 103.224,118.25 104.419,119.145 C106.208,120.484 107.433,122.78 108.19,125.682 C108.948,128.577 109.236,132.045 109.235,135.622 C109.235,140.336 108.741,145.24 108.218,149.328 C107.695,153.425 107.146,156.67 107.032,158.2 C107.004,158.591 107.297,158.93 107.687,158.959 C108.078,158.987 108.417,158.694 108.446,158.303 C108.544,156.926 109.097,153.618 109.624,149.508 C110.15,145.389 110.652,140.433 110.652,135.622 C110.649,130.75 110.147,126.03 108.571,122.425 C107.782,120.625 106.711,119.095 105.271,118.012 C103.834,116.927 102.032,116.317 99.901,116.319989 C99.065,116.319989 98.177,116.412 97.235,116.6 C96.851,116.676 96.602,117.05 96.678,117.433 C96.755,117.817 97.128,118.066 97.512,117.99" id="Fill-168" fill="#A4B73A"></path>
                <path d="M68.075,116.01 C67.772,115.98 67.468,115.966 67.167,115.966 C65.085,115.966 63.077,116.65 61.294,117.767 C59.51,118.886 57.942,120.44 56.718,122.224 C54.109,126.034 52.896,130.693 52.135,135.261 C51.506,139.05 51.168,142.926 51.168,146.797 C51.169,154.883 52.643,162.949 56.038,170.129 C56.205,170.483 56.627,170.634 56.981,170.467 C57.335,170.299 57.486,169.877 57.319,169.523 C54.032,162.573 52.585,154.712 52.586,146.797 C52.586,143.008 52.917,139.209 53.534,135.493 C54.275,131.01 55.467,126.551 57.887,123.026 C59.007,121.391 60.447,119.97 62.047,118.968 C63.647,117.965 65.4,117.383 67.167,117.383 C67.423,117.383 67.681,117.396 67.938,117.421 C68.328,117.459 68.674,117.173 68.712,116.784 C68.75,116.394 68.465,116.048 68.075,116.01" id="Fill-169" fill="#A4B73A"></path>
            </g>
        </g>
    </g>
</svg>