<?xml version="1.0" encoding="UTF-8"?>
<svg width="118px" height="118px" viewBox="0 0 118 118" version="1.1" xmlns="http://www.w3.org/2000/svg" xmlns:xlink="http://www.w3.org/1999/xlink">
    <title>icons8-potted_plant</title>
    <g id="Page-1" stroke="none" stroke-width="1" fill="none" fill-rule="evenodd">
        <g id="My-Plants-List" transform="translate(-1154.000000, -430.000000)" fill-rule="nonzero">
            <g id="icons8-potted_plant" transform="translate(1154.000000, 430.000000)">
                <path d="M58.4382674,63 C58.4382674,63 58.4382674,63 58.4382674,63 C56.4958379,63 55.200885,61.344175 55.200885,59.6883501 C55.200885,59.3571851 55.5246232,41.1431106 44.517523,34.1886458 C42.8988318,33.1951508 42.5750936,31.2081609 43.5463083,29.5523359 C44.517523,27.8965109 46.4599525,27.5653459 48.0786437,28.5588409 C62.3231263,37.8314607 61.999388,59.0260201 61.999388,60.0195151 C61.6756498,61.67534 60.0569586,63 58.4382674,63 Z" id="Path" fill="#8BC34A"></path>
                <path d="M46.1203559,3.19394763 C30.5303764,-4.66960121 6.17103354,4.17689124 0,6.47042632 C9.09415469,12.0404401 7.79498973,42.184044 24.3593429,47.7540577 C36.0518275,51.6858322 45.1459822,47.098762 46.1203559,30.7163686 C59.1120055,23.1804676 57.163258,8.7639614 46.1203559,3.19394763 Z M58.462423,72 C56.5136756,72 55.2145106,70.6894085 55.2145106,68.7235213 L55.2145106,58.8940853 C55.2145106,33.3375515 74.0524024,29.4057771 74.0524024,29.4057771 C75.6763586,29.0781292 77.6251061,30.3887207 77.9498973,32.0269601 C78.2746886,33.6651994 76.9755236,35.6310866 75.3515674,35.9587345 C74.7019849,35.9587345 61.7103354,38.9075653 61.7103354,58.8940853 L61.7103354,68.7235213 C61.7103354,70.6894085 60.4111704,72 58.462423,72 Z" id="Shape" fill="#8CE823"></path>
                <path d="M79.5191389,7.93047875 C93.8679346,3.41266924 113.434474,16.6433971 118,19.8704039 C109.521166,23.0974107 103.977313,49.8815671 88.9762997,51.8177711 C78.540812,53.1085738 72.9969591,47.6226623 75.605831,32.7784311 C63.8659073,23.742812 69.4097602,10.8347849 79.5191389,7.93047875 Z" id="Path" fill="#8CE823"></path>
                <path d="M24.5152355,47.465455 C7.84487535,41.8709095 9.15235457,11.5945455 0,6 C8.17174515,6.65818183 19.9390582,13.8981819 46.4155125,30.3527275 C45.434903,46.8072732 36.6094183,51.4145459 24.5152355,47.465455 Z M88.9085873,51.7436369 C103.617729,49.7690914 109.174515,22.4545456 118,19.1636365 C111.135734,18.1763638 100.34903,22.1254547 75.5069252,32.327273 C69.9501385,47.1363641 78.1218837,53.3890914 88.9085873,51.7436369 Z" id="Shape" fill="#689F38"></path>
                <polygon id="Path" fill="#E64A19" points="24 69 33.8181818 118 86.1818182 118 96 69"></polygon>
                <path d="M95.75,79 L24.25,79 C22.3,79 21,77.3 21,75.6 L21,62 L99,62 L99,75.6 C99,77.3 97.375,79 95.75,79 Z" id="Path" fill="#BF360C"></path>
            </g>
        </g>
    </g>
</svg>