<?xml version="1.0" encoding="UTF-8"?>
<svg width="119px" height="118px" viewBox="0 0 119 118" version="1.1" xmlns="http://www.w3.org/2000/svg" xmlns:xlink="http://www.w3.org/1999/xlink">
    <title>icons8-potted_plant</title>
    <g id="Page-1" stroke="none" stroke-width="1" fill="none" fill-rule="evenodd">
        <g id="My-Plants-List" transform="translate(-1163.000000, -818.000000)" fill-rule="nonzero">
            <g id="icons8-potted_plant" transform="translate(1163.000000, 818.000000)">
                <path d="M58.9119293,62.0803213 C58.9119293,62.0803213 58.9119293,62.0803213 58.9119293,62.0803213 C56.9255684,62.0803213 55.6013277,60.443686 55.6013277,58.8070508 C55.6013277,58.4797237 55.9323879,40.476736 44.6763425,33.602868 C43.0210417,32.6208869 42.6899815,30.6569246 43.683162,29.0202893 C44.6763425,27.3836541 46.6627034,27.056327 48.3180042,28.0383082 C62.8846512,37.2034655 62.553591,58.1523967 62.553591,59.1343778 C62.2225309,60.7710131 60.5672301,62.0803213 58.9119293,62.0803213 Z" id="Path" fill="#8BC34A"></path>
                <path d="M46.514547,3.19537287 C30.7913198,-4.67168492 6.22377741,4.17875509 0,6.47331361 C9.1718825,12.0458129 7.86161358,42.2028677 24.5675424,47.775367 C36.3599628,51.7088959 45.5318453,47.1197789 46.514547,30.7300751 C59.6172363,23.1908114 57.6518329,8.76787213 46.514547,3.19537287 Z M58.9621018,72.0321285 C56.9966984,72.0321285 55.6864295,70.7209522 55.6864295,68.7541878 L55.6864295,58.9203655 C55.6864295,33.3524277 74.685329,29.4188988 74.685329,29.4188988 C76.3231651,29.0911048 78.2885685,30.4022811 78.6161358,32.0412514 C78.943703,33.6802218 77.6334341,35.6469862 75.9955979,35.9747803 C75.3404634,35.9747803 62.2377741,38.924927 62.2377741,58.9203655 L62.2377741,68.7541878 C62.2377741,70.7209522 60.9275052,72.0321285 58.9621018,72.0321285 Z" id="Shape" fill="#54541C"></path>
                <path d="M79.2952113,7.57523099 C93.7275054,3.00782839 113.407906,16.3837931 118,19.6462236 C109.471826,22.908654 103.895713,49.9868266 88.8074051,51.9442848 C78.3111912,53.249257 72.7350776,47.7031253 75.3591311,32.6959453 C63.5508905,23.5611401 69.1270041,10.5114184 79.2952113,7.57523099 Z" id="Path" fill="#54541C"></path>
                <path d="M24.6136902,48.0710318 C7.87638087,42.4803937 9.18911101,12.2251762 0,6.63453815 C8.20456341,7.29226027 20.0191347,14.5272036 46.6019201,30.9702566 C45.6173725,47.4133096 36.7564441,52.0173645 24.6136902,48.0710318 Z M89.2656499,52.3462255 C104.033864,50.3730592 109.612967,23.0775912 118.473896,19.7889806 C111.582062,18.8023974 100.752039,22.7487301 75.8101659,32.943423 C56.443308,40.859395 68.5277467,55.1169961 89.2656499,52.3462255 Z" id="Shape" fill="#93AA7F"></path>
                <polygon id="Path" fill="#E64A19" points="23.2208835 68.7148594 33.0434465 118 85.4304491 118 95.253012 68.7148594"></polygon>
                <path d="M95.2925033,78.6666667 L23.1813922,78.6666667 C21.2147256,78.6666667 19.9036145,77.0080321 19.9036145,75.3493976 L19.9036145,62.0803213 L98.5702811,62.0803213 L98.5702811,75.3493976 C98.5702811,77.0080321 96.9313922,78.6666667 95.2925033,78.6666667 Z" id="Path" fill="#BF360C"></path>
            </g>
        </g>
    </g>
</svg>